<svg version="1.1" id="Layer_1" xmlns="http://www.w3.org/2000/svg" xmlns:xlink="http://www.w3.org/1999/xlink" x="0px" y="0px"
	 width="100%" viewBox="0 0 512 512" enable-background="new 0 0 512 512" xml:space="preserve">
<path fill="#000000" opacity="1.000000" stroke="none" 
	d="
M1.000000,167.000000 
	C1.000000,111.333336 1.000000,56.166668 1.000000,1.000000 
	C171.666672,1.000000 342.333344,1.000000 513.000000,1.000000 
	C513.000000,171.666672 513.000000,342.333344 513.000000,513.000000 
	C342.333344,513.000000 171.666672,513.000000 1.000000,513.000000 
	C1.000000,397.833344 1.000000,282.666656 1.000000,167.000000 
M497.000000,268.500000 
	C496.999878,219.176239 497.066711,169.852219 496.873505,120.529213 
	C496.857941,116.557220 495.823883,112.172882 493.932678,108.705910 
	C489.077393,99.805153 481.100311,95.969994 470.960968,97.022575 
	C466.417877,97.494202 464.850677,95.748558 464.911987,91.111923 
	C465.136719,74.118286 465.021667,57.119823 464.992523,40.123249 
	C464.969666,26.815172 455.267548,17.010836 442.052277,17.009258 
	C318.743439,16.994543 195.434601,16.995228 72.125755,17.007935 
	C58.491787,17.009340 49.023624,26.622900 49.005211,40.408390 
	C48.984509,55.905281 49.026138,71.402283 48.991440,86.899124 
	C48.966228,98.158875 50.013882,96.903725 39.257042,97.005325 
	C26.863626,97.122383 17.023956,106.875252 17.019268,119.277466 
	C16.986582,205.760284 16.987602,292.243103 17.018745,378.725922 
	C17.023060,390.707977 27.323948,400.930481 39.334145,400.984161 
	C52.997829,401.045258 66.661987,400.999725 80.325943,400.999908 
	C118.485023,401.000397 156.644394,401.071167 194.802811,400.911469 
	C199.573853,400.891510 201.330917,402.303040 201.085892,407.154022 
	C200.741699,413.968628 200.810410,420.820587 201.065628,427.643005 
	C201.223404,431.860352 199.562698,433.153717 195.506226,433.064606 
	C186.012741,432.856110 176.510971,432.939270 167.013489,433.017883 
	C154.931030,433.117859 145.107727,442.935486 145.019562,455.021393 
	C144.939331,466.018616 144.966553,477.017059 145.015244,488.014648 
	C145.046310,495.035217 146.934021,496.980377 153.887924,496.982758 
	C222.707581,497.006287 291.527252,497.007355 360.346893,496.978455 
	C367.048187,496.975616 368.941467,495.034424 368.979614,488.304138 
	C369.041962,477.306671 369.046844,466.308319 368.984985,455.310852 
	C368.916016,443.045624 358.980011,433.094025 346.739471,433.013824 
	C337.241760,432.951630 327.741089,432.878052 318.246307,433.054810 
	C314.423737,433.126007 312.809845,431.882935 312.943359,427.896301 
	C313.166382,421.238464 312.991638,414.567657 313.003021,407.902344 
	C313.014801,401.023529 313.024536,401.004059 319.943817,401.003265 
	C371.100311,400.997406 422.256836,401.006866 473.413330,400.995056 
	C487.051666,400.991943 496.988983,391.081757 496.994629,377.478546 
	C497.009583,341.485687 496.999908,305.492859 497.000000,268.500000 
z"/>
<path fill="#231F20" opacity="1.000000" stroke="none" 
	d="
M497.000000,269.000000 
	C496.999908,305.492859 497.009583,341.485687 496.994629,377.478546 
	C496.988983,391.081757 487.051666,400.991943 473.413330,400.995056 
	C422.256836,401.006866 371.100311,400.997406 319.943817,401.003265 
	C313.024536,401.004059 313.014801,401.023529 313.003021,407.902344 
	C312.991638,414.567657 313.166382,421.238464 312.943359,427.896301 
	C312.809845,431.882935 314.423737,433.126007 318.246307,433.054810 
	C327.741089,432.878052 337.241760,432.951630 346.739471,433.013824 
	C358.980011,433.094025 368.916016,443.045624 368.984985,455.310852 
	C369.046844,466.308319 369.041962,477.306671 368.979614,488.304138 
	C368.941467,495.034424 367.048187,496.975616 360.346893,496.978455 
	C291.527252,497.007355 222.707581,497.006287 153.887924,496.982758 
	C146.934021,496.980377 145.046310,495.035217 145.015244,488.014648 
	C144.966553,477.017059 144.939331,466.018616 145.019562,455.021393 
	C145.107727,442.935486 154.931030,433.117859 167.013489,433.017883 
	C176.510971,432.939270 186.012741,432.856110 195.506226,433.064606 
	C199.562698,433.153717 201.223404,431.860352 201.065628,427.643005 
	C200.810410,420.820587 200.741699,413.968628 201.085892,407.154022 
	C201.330917,402.303040 199.573853,400.891510 194.802811,400.911469 
	C156.644394,401.071167 118.485023,401.000397 80.325943,400.999908 
	C66.661987,400.999725 52.997829,401.045258 39.334145,400.984161 
	C27.323948,400.930481 17.023060,390.707977 17.018745,378.725922 
	C16.987602,292.243103 16.986582,205.760284 17.019268,119.277466 
	C17.023956,106.875252 26.863626,97.122383 39.257042,97.005325 
	C50.013882,96.903725 48.966228,98.158875 48.991440,86.899124 
	C49.026138,71.402283 48.984509,55.905281 49.005211,40.408390 
	C49.023624,26.622900 58.491787,17.009340 72.125755,17.007935 
	C195.434601,16.995228 318.743439,16.994543 442.052277,17.009258 
	C455.267548,17.010836 464.969666,26.815172 464.992523,40.123249 
	C465.021667,57.119823 465.136719,74.118286 464.911987,91.111923 
	C464.850677,95.748558 466.417877,97.494202 470.960968,97.022575 
	C481.100311,95.969994 489.077393,99.805153 493.932678,108.705910 
	C495.823883,112.172882 496.857941,116.557220 496.873505,120.529213 
	C497.066711,169.852219 496.999878,219.176239 497.000000,269.000000 
M296.942902,408.150696 
	C296.942902,405.914246 296.942902,403.677795 296.942902,401.359222 
	C269.927124,401.359222 243.767288,401.359222 217.160202,401.359222 
	C217.160202,404.150970 217.160202,406.597382 217.045547,409.969299 
	C217.045547,417.538971 217.045547,425.108673 217.045547,432.671021 
	C244.058502,432.671021 270.252197,432.671021 296.839783,432.671021 
	C296.839783,424.581818 296.839783,416.812744 296.942902,408.150696 
M480.964233,181.081940 
	C480.976074,161.603119 481.013641,142.124268 480.984375,122.645523 
	C480.975403,116.664879 478.323700,113.433380 473.147980,113.057976 
	C470.558655,112.870155 467.944397,113.025261 465.171875,113.025261 
	C465.171875,149.379013 465.171875,185.139771 465.034210,221.841476 
	C465.022644,245.996475 465.018066,270.151489 464.997162,294.306488 
	C464.982513,311.247162 455.268707,320.964935 438.359894,321.000824 
	C413.875000,321.052795 389.390106,321.113770 363.988495,321.036133 
	C268.341339,321.023987 172.693283,320.796387 77.047935,321.205536 
	C60.548378,321.276062 48.602058,310.558990 48.782253,292.716125 
	C49.366119,234.900269 49.000340,177.074844 49.000332,119.253105 
	C49.000332,117.305115 49.000332,115.357124 49.000332,113.498886 
	C38.266270,111.915802 32.794518,113.102936 32.855507,126.431473 
	C33.167366,194.583054 32.999672,262.736816 32.999672,330.889801 
	C32.999672,332.820709 32.999672,334.751648 32.999672,337.000275 
	C35.301502,337.000275 36.942711,337.000275 38.583920,337.000275 
	C132.731705,337.000275 226.879501,337.001099 321.027283,336.993408 
	C322.690521,336.993286 324.353760,336.890411 326.942291,336.973297 
	C378.174500,336.973297 429.406677,336.973297 481.000275,336.973297 
	C481.000275,334.528687 481.000275,332.721405 481.000275,330.914124 
	C481.000275,305.262878 481.021667,279.611603 480.994141,253.960373 
	C480.968414,229.978210 480.890747,205.996124 480.964233,181.081940 
M448.934967,138.051636 
	C448.934967,119.127762 448.934967,100.203896 448.934967,81.333359 
	C320.658325,81.333359 192.959122,81.333359 64.999283,81.333359 
	C64.999283,83.312592 64.999283,84.959244 64.999283,86.605888 
	C64.999290,155.587280 64.997795,224.568680 65.001099,293.550079 
	C65.001541,302.697449 67.322914,304.998627 76.543243,304.999084 
	C138.359909,305.002136 200.176559,305.006836 261.993225,304.992157 
	C268.988220,304.990509 275.983215,304.871613 283.906006,304.970062 
	C335.179291,304.980408 386.452576,304.993683 437.725861,304.998383 
	C446.575775,304.999176 448.997040,302.590820 448.998169,293.782990 
	C449.004364,246.005493 449.005646,198.227997 448.992828,150.450500 
	C448.991821,146.626495 448.871796,142.802521 448.934967,138.051636 
M126.500000,352.999908 
	C95.426521,352.999908 64.353035,352.999908 32.999855,352.999908 
	C32.999855,360.035553 32.998360,366.347595 33.000195,372.659668 
	C33.003181,382.930939 35.038841,384.999329 45.165367,384.999390 
	C186.428925,385.000397 327.692474,385.000366 468.956024,384.996521 
	C470.620911,384.996490 472.704163,385.566437 473.865295,384.787262 
	C476.432190,383.064728 480.287140,380.819946 480.512146,378.488586 
	C481.317139,370.148468 480.827423,361.683350 480.827423,352.999908 
	C362.680542,352.999908 245.090271,352.999908 126.500000,352.999908 
M129.500000,65.000626 
	C235.914215,65.000626 342.328430,65.000626 449.000549,65.000626 
	C449.000549,57.903263 449.002228,51.583302 449.000153,45.263340 
	C448.996765,35.052299 446.948761,33.000042 436.745483,32.999966 
	C316.913147,32.999058 197.080795,32.999134 77.248459,33.001953 
	C75.582283,33.001991 73.893570,32.873573 72.254425,33.094612 
	C68.354034,33.620583 65.423798,35.907177 65.243034,39.772881 
	C64.857040,48.027477 65.124924,56.312656 65.124924,65.000626 
	C86.572395,65.000626 107.536201,65.000626 129.500000,65.000626 
M160.999924,459.763275 
	C160.999924,466.701416 160.999924,473.639587 160.999924,480.573975 
	C225.359863,480.573975 289.057007,480.573975 352.999542,480.573975 
	C352.999542,473.158722 353.029480,466.168091 352.991364,459.177826 
	C352.950867,451.742310 350.196045,449.010193 342.652344,449.008270 
	C285.493347,448.993683 228.334366,448.992798 171.175369,449.009949 
	C163.913666,449.012146 161.375565,451.527374 160.999924,459.763275 
z"/>
<path fill="#FFCD00" opacity="1.000000" stroke="none" 
	d="
M282.978210,304.807068 
	C275.983215,304.871613 268.988220,304.990509 261.993225,304.992157 
	C200.176559,305.006836 138.359909,305.002136 76.543243,304.999084 
	C67.322914,304.998627 65.001541,302.697449 65.001099,293.550079 
	C64.997795,224.568680 64.999290,155.587280 64.999283,86.605888 
	C64.999283,84.959244 64.999283,83.312592 64.999283,81.333359 
	C192.959122,81.333359 320.658325,81.333359 448.934967,81.333359 
	C448.934967,100.203896 448.934967,119.127762 448.573059,138.682648 
	C447.837341,139.845459 447.293304,140.325653 447.114227,140.916473 
	C440.090332,164.089233 429.896362,185.769485 416.337097,205.684113 
	C414.047882,201.693710 410.701721,200.954987 406.778442,200.963165 
	C376.308746,201.026718 345.838837,200.998062 315.369019,200.999222 
	C314.536621,200.999252 313.699554,200.959747 312.872559,201.030563 
	C308.179291,201.432434 304.972595,204.749313 305.034790,209.102509 
	C305.096832,213.445389 308.334595,216.637451 313.087555,216.971985 
	C314.413330,217.065308 315.750549,216.999405 317.082520,217.001465 
	C347.050385,217.047775 377.018219,217.093384 406.962830,217.490173 
	C406.666443,218.610764 406.596497,219.565170 406.089752,220.122238 
	C397.875824,229.151932 389.646271,238.168564 381.292572,247.068298 
	C380.386230,248.033920 378.689911,248.258087 377.507202,248.491272 
	C379.124146,245.551651 380.585846,242.942352 382.065308,240.343140 
	C386.095642,233.262268 385.736633,228.801849 380.906219,226.073944 
	C376.116211,223.368835 372.197266,225.366638 368.076263,232.503983 
	C359.111969,248.029633 350.114594,263.536194 340.768921,279.109039 
	C336.424866,280.806091 332.442596,282.444641 328.578583,283.677002 
	C329.694611,278.944305 327.897827,275.897064 324.354736,273.578918 
	C320.236115,270.884186 316.162201,268.121094 311.473267,264.989899 
	C316.015717,261.953644 319.993347,259.346497 323.916595,256.659912 
	C329.131927,253.088501 330.420532,248.676605 327.550262,244.495071 
	C324.784821,240.466202 320.276428,239.923660 315.282837,243.197067 
	C308.065491,247.928162 300.870728,252.696838 293.752777,257.575592 
	C287.324585,261.981567 287.295319,268.011566 293.713531,272.389954 
	C301.796570,277.904053 309.997406,283.245544 318.022125,289.006714 
	C316.485565,290.422089 315.225281,291.879974 313.637970,292.498199 
	C304.840424,295.924896 295.950745,299.114380 287.125824,302.472260 
	C285.659454,303.030243 284.356598,304.017944 282.978210,304.807068 
M185.500000,256.997528 
	C175.190292,256.997803 164.877792,256.870300 154.573013,257.095886 
	C152.244644,257.146851 148.975769,257.738342 147.860672,259.305511 
	C146.268692,261.542786 145.293823,265.096100 145.805893,267.749542 
	C146.588409,271.804504 150.300491,273.028137 154.345581,273.021698 
	C179.787155,272.981201 205.228806,273.011932 230.670441,272.995422 
	C237.279907,272.991150 241.055527,269.965485 240.963562,264.859772 
	C240.872040,259.779694 237.178345,257.008911 230.399277,257.002106 
	C215.766205,256.987457 201.133087,256.997559 185.500000,256.997528 
M365.489807,120.997505 
	C343.206940,120.997749 320.924072,120.977875 298.641266,121.011703 
	C292.704895,121.020714 289.148560,123.988991 289.034149,128.812393 
	C288.915771,133.801987 292.612854,136.951523 298.774933,136.991287 
	C305.925110,137.037430 313.075806,137.002563 320.226257,137.002441 
	C338.684448,137.002106 357.142700,137.032715 375.600739,136.982788 
	C381.414062,136.967072 385.008698,133.767914 384.963562,128.926727 
	C384.918396,124.082733 381.355774,121.091278 375.463409,121.005981 
	C372.470825,120.962654 369.477112,120.997818 365.489807,120.997505 
M162.500000,224.997513 
	C143.709763,224.998108 124.919426,224.963333 106.129364,225.021255 
	C100.617981,225.038239 97.137505,228.153915 97.034164,232.825089 
	C96.930367,237.516815 100.418419,240.953247 105.789536,240.967270 
	C131.896133,241.035385 158.003067,241.033493 184.109695,240.971176 
	C189.519363,240.958267 193.013184,237.601608 192.963562,232.917007 
	C192.914032,228.240875 189.424530,225.091034 183.952805,225.020432 
	C177.136246,224.932449 170.317688,224.998169 162.500000,224.997513 
M229.301300,217.002487 
	C237.171600,216.967911 240.800415,214.548630 240.963531,209.227463 
	C241.131012,203.764114 237.208572,200.999664 229.266556,200.998444 
	C210.471924,200.995560 191.677307,200.995758 172.882675,200.998474 
	C166.229797,200.999451 159.575439,200.929306 152.924606,201.049240 
	C148.967194,201.120575 145.772598,203.327499 145.479218,207.074570 
	C145.268127,209.770172 146.701370,213.190903 148.554413,215.250717 
	C149.880325,216.724625 153.114365,216.922989 155.500549,216.933975 
	C179.783340,217.045929 204.066864,217.002441 229.301300,217.002487 
M129.511688,155.666382 
	C133.865646,162.960129 140.538727,162.922653 144.871765,155.404999 
	C154.997406,137.837402 165.020157,120.210304 175.036835,102.580185 
	C178.215012,96.986343 177.456375,92.551888 173.075134,90.002502 
	C168.682114,87.446259 164.348663,89.039207 161.184784,94.558578 
	C151.100403,112.150719 141.004395,129.737091 131.102707,147.431900 
	C129.889847,149.599350 129.829147,152.411514 129.511688,155.666382 
M211.390747,176.996841 
	C192.603485,176.996918 173.816208,176.980820 155.028976,177.006119 
	C148.695282,177.014664 145.083847,179.925171 145.033447,184.919525 
	C144.983078,189.912689 148.646347,192.973434 154.878021,192.991760 
	C167.513596,193.028946 180.149338,193.004669 192.785019,193.002579 
	C200.765411,193.001251 208.748215,193.111069 216.725327,192.947067 
	C221.715500,192.844452 225.078354,189.311798 224.964264,184.802719 
	C224.854996,180.483337 221.590591,177.326889 216.838806,177.024261 
	C215.348267,176.929337 213.847107,177.001297 211.390747,176.996841 
M111.057762,105.213821 
	C102.138420,110.994820 93.071976,116.564705 84.356255,122.637917 
	C79.323898,126.144516 79.808525,132.291183 85.106842,135.964371 
	C92.621658,141.174210 100.191467,146.324966 107.981102,151.104385 
	C110.007957,152.347961 113.316895,153.094833 115.351967,152.304962 
	C117.596085,151.433975 120.345467,148.637207 120.520767,146.487366 
	C120.735809,143.850159 119.207108,140.242584 117.194183,138.427551 
	C113.231758,134.854660 108.415039,132.229187 103.567520,128.952087 
	C108.223282,125.827881 112.193977,123.111916 116.218521,120.478233 
	C119.739578,118.174034 121.908203,115.162773 120.602425,110.855148 
	C119.335938,106.677109 116.235901,104.752762 111.057762,105.213821 
M187.648178,150.897522 
	C191.311523,153.898697 194.920380,153.411377 198.635971,150.897614 
	C205.662140,146.144089 212.792587,141.544296 219.802856,136.767838 
	C226.794495,132.004074 226.836517,126.033653 219.901230,121.296761 
	C212.896683,116.512566 205.818253,111.834541 198.715866,107.196236 
	C193.683914,103.910065 189.204193,104.456322 186.431732,108.516769 
	C183.644165,112.599327 184.823181,117.025826 189.701599,120.400200 
	C193.754227,123.203384 197.874878,125.908234 202.495987,129.013138 
	C197.837875,132.137146 193.696411,134.832657 189.642471,137.653900 
	C184.388794,141.310074 183.761002,144.654297 187.648178,150.897522 
M321.537048,193.004196 
	C334.496948,193.001465 347.457428,193.070038 360.416412,192.960510 
	C365.505646,192.917496 368.888855,189.618546 368.965302,185.122543 
	C369.039032,180.789124 365.832428,177.125717 361.168640,177.081070 
	C345.053589,176.926773 328.935211,176.926865 312.820160,177.081619 
	C308.154053,177.126419 304.958466,180.782761 305.032379,185.124222 
	C305.106171,189.456863 308.337463,192.680008 313.079224,192.962357 
	C315.562988,193.110260 318.062225,192.998627 321.537048,193.004196 
M119.162201,217.009338 
	C125.566391,216.700912 129.027847,213.842529 128.971054,208.909424 
	C128.913971,203.951019 125.266380,201.041885 118.990265,200.996017 
	C115.007507,200.966919 111.024193,200.967911 107.041420,200.995789 
	C100.725464,201.039978 97.109207,203.898911 97.026703,208.868179 
	C96.943855,213.858154 100.614899,216.939499 106.787788,217.002075 
	C110.604408,217.040756 114.421738,217.009506 119.162201,217.009338 
M259.125214,214.368988 
	C261.371643,215.248093 263.571198,216.698456 265.874237,216.887314 
	C270.662567,217.279984 275.507996,217.096985 280.325684,216.977722 
	C285.447205,216.850922 288.839905,213.706192 288.971039,209.217682 
	C289.107971,204.530334 285.613800,201.148529 280.271698,201.018616 
	C275.620056,200.905487 270.962341,200.926987 266.309326,201.006470 
	C258.351135,201.142410 255.166824,206.473343 259.125214,214.368988 
M385.083984,186.180832 
	C386.310638,191.190033 389.666992,193.143967 394.629791,193.030823 
	C399.281586,192.924744 403.941254,193.116791 408.590668,192.967560 
	C413.634674,192.805649 416.997314,189.467850 416.971039,184.952988 
	C416.944702,180.431030 413.585236,177.171341 408.506165,177.027588 
	C403.689636,176.891281 398.865021,176.924026 394.046265,177.010529 
	C388.291962,177.113846 385.983124,179.323013 385.083984,186.180832 
M211.125198,238.369003 
	C213.371613,239.248108 215.571198,240.698441 217.874207,240.887314 
	C222.662537,241.279968 227.507996,241.097015 232.325684,240.977737 
	C237.447205,240.850922 240.839859,237.706207 240.971008,233.217697 
	C241.107971,228.530060 237.614120,225.148560 232.271729,225.018616 
	C227.620056,224.905457 222.962372,224.926941 218.309357,225.006424 
	C210.351196,225.142334 207.166855,230.473282 211.125198,238.369003 
M275.406616,224.990311 
	C271.757263,225.005386 268.094025,224.825912 264.462158,225.085648 
	C260.089539,225.398361 257.047729,228.814850 257.026733,232.957825 
	C257.005768,237.094315 260.032501,240.679962 264.387756,240.887878 
	C270.179810,241.164398 276.007904,241.183273 281.796509,240.869522 
	C286.079987,240.637360 289.212219,236.853287 288.939392,232.765625 
	C288.646942,228.384949 286.129547,225.772110 281.827972,225.094498 
	C280.044647,224.813583 278.186005,225.010635 275.406616,224.990311 
M287.818481,189.110580 
	C290.420837,182.001038 287.287720,177.158661 279.889191,177.010818 
	C275.070129,176.914520 270.244293,176.887039 265.427429,177.029907 
	C260.366089,177.180023 257.016357,180.482895 257.026703,185.011658 
	C257.037048,189.532761 260.392883,192.823502 265.460754,192.968552 
	C270.443909,193.111160 275.467865,193.341370 280.407104,192.854828 
	C282.803925,192.618713 285.048065,190.832367 287.818481,189.110580 
M98.623703,189.746628 
	C100.937355,190.831482 103.181808,192.618317 105.579094,192.854614 
	C110.518242,193.341431 115.542160,193.110855 120.525314,192.968842 
	C125.593834,192.824402 128.957458,189.533081 128.971054,185.016846 
	C128.984665,180.495010 125.624702,177.180557 120.568268,177.030014 
	C115.751511,176.886581 110.925652,176.914764 106.106651,177.010757 
	C98.701988,177.158264 95.573952,181.986298 98.623703,189.746628 
M102.505547,257.413361 
	C98.281006,259.230225 96.165421,262.443970 97.313416,266.933472 
	C98.454338,271.395325 101.884064,273.129486 106.411339,273.030823 
	C111.225983,272.925903 116.049515,273.134094 120.859901,272.955719 
	C125.601471,272.779877 128.860397,269.502045 128.971039,265.191040 
	C129.086853,260.678589 125.732544,257.162720 120.753403,257.046509 
	C114.947334,256.911011 109.133484,257.109711 102.505547,257.413361 
M241.084000,130.180817 
	C242.310608,135.190048 245.666946,137.143982 250.629791,137.030807 
	C255.281570,136.924728 259.941254,137.116806 264.590668,136.967560 
	C269.634674,136.805649 272.997345,133.467880 272.971069,128.953003 
	C272.944763,124.431046 269.585266,121.171349 264.506165,121.027596 
	C259.689636,120.891281 254.865021,120.924011 250.046249,121.010536 
	C244.291992,121.113846 241.983063,123.323082 241.084000,130.180817 
z"/>
<path fill="#A7A9AC" opacity="1.000000" stroke="none" 
	d="
M127.000000,352.999908 
	C245.090271,352.999908 362.680542,352.999908 480.827423,352.999908 
	C480.827423,361.683350 481.317139,370.148468 480.512146,378.488586 
	C480.287140,380.819946 476.432190,383.064728 473.865295,384.787262 
	C472.704163,385.566437 470.620911,384.996490 468.956024,384.996521 
	C327.692474,385.000366 186.428925,385.000397 45.165367,384.999390 
	C35.038841,384.999329 33.003181,382.930939 33.000195,372.659668 
	C32.998360,366.347595 32.999855,360.035553 32.999855,352.999908 
	C64.353035,352.999908 95.426521,352.999908 127.000000,352.999908 
M258.450165,377.010101 
	C260.770294,376.995422 263.104309,377.137207 265.407532,376.932495 
	C269.804291,376.541656 272.880829,373.269684 272.966400,369.149963 
	C273.055939,364.838654 269.860138,361.267181 265.220703,361.071930 
	C259.761078,360.842194 254.277527,360.846466 248.817276,361.067993 
	C244.160339,361.256897 240.968414,364.780914 241.030914,369.102631 
	C241.093414,373.422424 244.313400,376.681244 249.031616,376.962402 
	C251.839615,377.129669 254.665054,377.004059 258.450165,377.010101 
z"/>
<path fill="#2488FF" opacity="1.000000" stroke="none" 
	d="
M326.016998,336.835510 
	C324.353760,336.890411 322.690521,336.993286 321.027283,336.993408 
	C226.879501,337.001099 132.731705,337.000275 38.583920,337.000275 
	C36.942711,337.000275 35.301502,337.000275 32.999672,337.000275 
	C32.999672,334.751648 32.999672,332.820709 32.999672,330.889801 
	C32.999672,262.736816 33.167366,194.583054 32.855507,126.431473 
	C32.794518,113.102936 38.266270,111.915802 49.000332,113.498886 
	C49.000332,115.357124 49.000332,117.305115 49.000332,119.253105 
	C49.000340,177.074844 49.366119,234.900269 48.782253,292.716125 
	C48.602058,310.558990 60.548378,321.276062 77.047935,321.205536 
	C172.693283,320.796387 268.341339,321.023987 364.196838,321.317322 
	C351.609131,326.677521 338.813080,331.756500 326.016998,336.835510 
z"/>
<path fill="#EBBF00" opacity="1.000000" stroke="none" 
	d="
M328.460327,284.083191 
	C332.442596,282.444641 336.424866,280.806091 340.709503,279.463013 
	C339.858215,281.954559 337.872162,284.109497 337.761169,286.357025 
	C337.621948,289.176361 338.198181,292.897766 339.998596,294.688995 
	C341.621552,296.303711 345.506287,296.645111 348.028473,296.036102 
	C350.007782,295.558197 351.836945,293.011047 353.033600,290.972656 
	C361.245514,276.984344 369.273102,262.887848 377.360046,248.826187 
	C378.689911,248.258087 380.386230,248.033920 381.292572,247.068298 
	C389.646271,238.168564 397.875824,229.151932 406.089752,220.122238 
	C406.596497,219.565170 406.666443,218.610764 407.357605,217.420715 
	C415.039917,216.361420 417.501801,213.275253 416.566803,205.979645 
	C429.896362,185.769485 440.090332,164.089233 447.114227,140.916473 
	C447.293304,140.325653 447.837341,139.845459 448.509155,139.146103 
	C448.871796,142.802521 448.991821,146.626495 448.992828,150.450500 
	C449.005646,198.227997 449.004364,246.005493 448.998169,293.782990 
	C448.997040,302.590820 446.575775,304.999176 437.725861,304.998383 
	C386.452576,304.993683 335.179291,304.980408 283.442108,304.888550 
	C284.356598,304.017944 285.659454,303.030243 287.125824,302.472260 
	C295.950745,299.114380 304.840424,295.924896 313.637970,292.498199 
	C315.225281,291.879974 316.485565,290.422089 318.422699,289.047058 
	C323.310333,289.621124 326.348633,287.798035 328.460327,284.083191 
M409.469147,285.010284 
	C415.831818,280.761505 422.265442,276.614319 428.536682,272.234680 
	C434.509674,268.063324 434.660828,262.061737 428.806458,257.964752 
	C421.313477,252.721039 413.706390,247.623001 405.935150,242.806351 
	C404.014587,241.615967 400.804321,240.726868 399.018646,241.535675 
	C396.630096,242.617508 393.754120,245.331390 393.473846,247.634781 
	C393.163818,250.182999 394.872009,253.815292 396.903076,255.631332 
	C400.859406,259.168793 405.653931,261.768768 410.481689,265.012573 
	C406.529327,267.670746 403.365784,269.811859 400.188568,271.932495 
	C392.993927,276.734528 391.264374,280.828430 394.474030,285.498749 
	C397.578186,290.015625 401.918579,289.987976 409.469147,285.010284 
z"/>
<path fill="#006DF0" opacity="1.000000" stroke="none" 
	d="
M129.000000,65.000626 
	C107.536201,65.000626 86.572395,65.000626 65.124924,65.000626 
	C65.124924,56.312656 64.857040,48.027477 65.243034,39.772881 
	C65.423798,35.907177 68.354034,33.620583 72.254425,33.094612 
	C73.893570,32.873573 75.582283,33.001991 77.248459,33.001953 
	C197.080795,32.999134 316.913147,32.999058 436.745483,32.999966 
	C446.948761,33.000042 448.996765,35.052299 449.000153,45.263340 
	C449.002228,51.583302 449.000549,57.903263 449.000549,65.000626 
	C342.328430,65.000626 235.914215,65.000626 129.000000,65.000626 
M349.500000,40.999508 
	C298.174042,40.999607 246.848114,40.995201 195.522171,41.005238 
	C188.753052,41.006561 185.049347,43.862877 185.040894,48.986351 
	C185.032471,54.089130 188.777451,56.957905 195.503098,56.999790 
	C196.003006,57.002903 196.502960,57.000465 197.002884,57.000465 
	C271.658752,57.000477 346.314636,57.001041 420.970520,56.996857 
	C422.635925,56.996761 424.343079,57.168449 425.958679,56.869980 
	C430.251648,56.076897 432.884338,53.427219 432.888489,49.005753 
	C432.892670,44.587067 430.276154,41.937458 425.978668,41.126118 
	C424.526154,40.851898 422.988495,41.003662 421.489746,41.003323 
	C397.826508,40.997952 374.163239,40.999527 349.500000,40.999508 
M168.146347,52.390938 
	C170.011780,45.554173 166.979553,41.220268 160.104233,41.007019 
	C157.451889,40.924751 154.429977,40.243565 152.230774,41.256233 
	C149.525955,42.501732 146.270721,44.886055 145.557541,47.425297 
	C144.923233,49.683731 146.716995,53.623318 148.706284,55.410069 
	C152.768173,59.058388 163.933167,57.277294 168.146347,52.390938 
M129.859604,56.944813 
	C135.173874,55.107307 137.609467,51.905945 136.884521,47.711208 
	C136.140930,43.408543 132.809814,41.066681 127.282059,40.992271 
	C125.293091,40.965504 123.298676,40.908298 121.314919,41.015820 
	C116.312485,41.286964 112.964546,44.597404 113.027527,49.102890 
	C113.090210,53.586697 116.468376,56.772221 121.528717,56.985878 
	C124.010880,57.090675 126.501335,56.999012 129.859604,56.944813 
M99.492973,56.557171 
	C103.708542,54.741207 105.822678,51.546692 104.667175,47.051884 
	C103.519272,42.586605 100.091324,40.821884 95.577881,40.976612 
	C93.258545,41.056126 90.922050,40.861805 88.616203,41.059006 
	C84.208641,41.435947 81.126862,44.686211 81.027550,48.814198 
	C80.923866,53.123947 84.115570,56.654476 88.750252,56.932278 
	C92.048096,57.129944 95.373253,56.871857 99.492973,56.557171 
z"/>
<path fill="#939598" opacity="1.000000" stroke="none" 
	d="
M161.000305,459.303467 
	C161.375565,451.527374 163.913666,449.012146 171.175369,449.009949 
	C228.334366,448.992798 285.493347,448.993683 342.652344,449.008270 
	C350.196045,449.010193 352.950867,451.742310 352.991364,459.177826 
	C353.029480,466.168091 352.999542,473.158722 352.999542,480.573975 
	C289.057007,480.573975 225.359863,480.573975 160.999924,480.573975 
	C160.999924,473.639587 160.999924,466.701416 161.000305,459.303467 
z"/>
<path fill="#006DF0" opacity="1.000000" stroke="none" 
	d="
M326.479645,336.904388 
	C338.813080,331.756500 351.609131,326.677521 364.655212,321.384705 
	C389.390106,321.113770 413.875000,321.052795 438.359894,321.000824 
	C455.268707,320.964935 464.982513,311.247162 464.997162,294.306488 
	C465.018066,270.151489 465.022644,245.996475 465.317078,221.119934 
	C470.678650,207.603592 475.757294,194.808792 480.835938,182.013992 
	C480.890747,205.996124 480.968414,229.978210 480.994141,253.960373 
	C481.021667,279.611603 481.000275,305.262878 481.000275,330.914124 
	C481.000275,332.721405 481.000275,334.528687 481.000275,336.973297 
	C429.406677,336.973297 378.174500,336.973297 326.479645,336.904388 
z"/>
<path fill="#808285" opacity="1.000000" stroke="none" 
	d="
M296.839783,409.043640 
	C296.839783,416.812744 296.839783,424.581818 296.839783,432.671021 
	C270.252197,432.671021 244.058502,432.671021 217.045547,432.671021 
	C217.045547,425.108673 217.045547,417.538971 217.560577,409.496643 
	C244.330322,409.030518 270.585052,409.037079 296.839783,409.043640 
z"/>
<path fill="#2488FF" opacity="1.000000" stroke="none" 
	d="
M480.900085,181.547974 
	C475.757294,194.808792 470.678650,207.603592 465.385925,220.649445 
	C465.171875,185.139771 465.171875,149.379013 465.171875,113.025261 
	C467.944397,113.025261 470.558655,112.870155 473.147980,113.057976 
	C478.323700,113.433380 480.975403,116.664879 480.984375,122.645523 
	C481.013641,142.124268 480.976074,161.603119 480.900085,181.547974 
z"/>
<path fill="#6D6E71" opacity="1.000000" stroke="none" 
	d="
M296.891357,408.597168 
	C270.585052,409.037079 244.330322,409.030518 217.617889,409.033875 
	C217.160202,406.597382 217.160202,404.150970 217.160202,401.359222 
	C243.767288,401.359222 269.927124,401.359222 296.942902,401.359222 
	C296.942902,403.677795 296.942902,405.914246 296.891357,408.597168 
z"/>
<path fill="#242020" opacity="1.000000" stroke="none" 
	d="
M416.337097,205.684113 
	C417.501801,213.275253 415.039917,216.361420 407.380829,217.069641 
	C377.018219,217.093384 347.050385,217.047775 317.082520,217.001465 
	C315.750549,216.999405 314.413330,217.065308 313.087555,216.971985 
	C308.334595,216.637451 305.096832,213.445389 305.034790,209.102509 
	C304.972595,204.749313 308.179291,201.432434 312.872559,201.030563 
	C313.699554,200.959747 314.536621,200.999252 315.369019,200.999222 
	C345.838837,200.998062 376.308746,201.026718 406.778442,200.963165 
	C410.701721,200.954987 414.047882,201.693710 416.337097,205.684113 
z"/>
<path fill="#242020" opacity="1.000000" stroke="none" 
	d="
M186.000000,256.997528 
	C201.133087,256.997559 215.766205,256.987457 230.399277,257.002106 
	C237.178345,257.008911 240.872040,259.779694 240.963562,264.859772 
	C241.055527,269.965485 237.279907,272.991150 230.670441,272.995422 
	C205.228806,273.011932 179.787155,272.981201 154.345581,273.021698 
	C150.300491,273.028137 146.588409,271.804504 145.805893,267.749542 
	C145.293823,265.096100 146.268692,261.542786 147.860672,259.305511 
	C148.975769,257.738342 152.244644,257.146851 154.573013,257.095886 
	C164.877792,256.870300 175.190292,256.997803 186.000000,256.997528 
z"/>
<path fill="#242020" opacity="1.000000" stroke="none" 
	d="
M365.986847,120.997505 
	C369.477112,120.997818 372.470825,120.962654 375.463409,121.005981 
	C381.355774,121.091278 384.918396,124.082733 384.963562,128.926727 
	C385.008698,133.767914 381.414062,136.967072 375.600739,136.982788 
	C357.142700,137.032715 338.684448,137.002106 320.226257,137.002441 
	C313.075806,137.002563 305.925110,137.037430 298.774933,136.991287 
	C292.612854,136.951523 288.915771,133.801987 289.034149,128.812393 
	C289.148560,123.988991 292.704895,121.020714 298.641266,121.011703 
	C320.924072,120.977875 343.206940,120.997749 365.986847,120.997505 
z"/>
<path fill="#242020" opacity="1.000000" stroke="none" 
	d="
M163.000000,224.997513 
	C170.317688,224.998169 177.136246,224.932449 183.952805,225.020432 
	C189.424530,225.091034 192.914032,228.240875 192.963562,232.917007 
	C193.013184,237.601608 189.519363,240.958267 184.109695,240.971176 
	C158.003067,241.033493 131.896133,241.035385 105.789536,240.967270 
	C100.418419,240.953247 96.930367,237.516815 97.034164,232.825089 
	C97.137505,228.153915 100.617981,225.038239 106.129364,225.021255 
	C124.919426,224.963333 143.709763,224.998108 163.000000,224.997513 
z"/>
<path fill="#242020" opacity="1.000000" stroke="none" 
	d="
M228.825745,217.002487 
	C204.066864,217.002441 179.783340,217.045929 155.500549,216.933975 
	C153.114365,216.922989 149.880325,216.724625 148.554413,215.250717 
	C146.701370,213.190903 145.268127,209.770172 145.479218,207.074570 
	C145.772598,203.327499 148.967194,201.120575 152.924606,201.049240 
	C159.575439,200.929306 166.229797,200.999451 172.882675,200.998474 
	C191.677307,200.995758 210.471924,200.995560 229.266556,200.998444 
	C237.208572,200.999664 241.131012,203.764114 240.963531,209.227463 
	C240.800415,214.548630 237.171600,216.967911 228.825745,217.002487 
z"/>
<path fill="#27221F" opacity="1.000000" stroke="none" 
	d="
M377.507202,248.491272 
	C369.273102,262.887848 361.245514,276.984344 353.033600,290.972656 
	C351.836945,293.011047 350.007782,295.558197 348.028473,296.036102 
	C345.506287,296.645111 341.621552,296.303711 339.998596,294.688995 
	C338.198181,292.897766 337.621948,289.176361 337.761169,286.357025 
	C337.872162,284.109497 339.858215,281.954559 341.071289,279.404541 
	C350.114594,263.536194 359.111969,248.029633 368.076263,232.503983 
	C372.197266,225.366638 376.116211,223.368835 380.906219,226.073944 
	C385.736633,228.801849 386.095642,233.262268 382.065308,240.343140 
	C380.585846,242.942352 379.124146,245.551651 377.507202,248.491272 
z"/>
<path fill="#27221F" opacity="1.000000" stroke="none" 
	d="
M129.373093,155.295654 
	C129.829147,152.411514 129.889847,149.599350 131.102707,147.431900 
	C141.004395,129.737091 151.100403,112.150719 161.184784,94.558578 
	C164.348663,89.039207 168.682114,87.446259 173.075134,90.002502 
	C177.456375,92.551888 178.215012,96.986343 175.036835,102.580185 
	C165.020157,120.210304 154.997406,137.837402 144.871765,155.404999 
	C140.538727,162.922653 133.865646,162.960129 129.373093,155.295654 
z"/>
<path fill="#252020" opacity="1.000000" stroke="none" 
	d="
M211.870773,176.996857 
	C213.847107,177.001297 215.348267,176.929337 216.838806,177.024261 
	C221.590591,177.326889 224.854996,180.483337 224.964264,184.802719 
	C225.078354,189.311798 221.715500,192.844452 216.725327,192.947067 
	C208.748215,193.111069 200.765411,193.001251 192.785019,193.002579 
	C180.149338,193.004669 167.513596,193.028946 154.878021,192.991760 
	C148.646347,192.973434 144.983078,189.912689 145.033447,184.919525 
	C145.083847,179.925171 148.695282,177.014664 155.028976,177.006119 
	C173.816208,176.980820 192.603485,176.996918 211.870773,176.996857 
z"/>
<path fill="#28231F" opacity="1.000000" stroke="none" 
	d="
M328.578583,283.677002 
	C326.348633,287.798035 323.310333,289.621124 318.547974,288.701904 
	C309.997406,283.245544 301.796570,277.904053 293.713531,272.389954 
	C287.295319,268.011566 287.324585,261.981567 293.752777,257.575592 
	C300.870728,252.696838 308.065491,247.928162 315.282837,243.197067 
	C320.276428,239.923660 324.784821,240.466202 327.550262,244.495071 
	C330.420532,248.676605 329.131927,253.088501 323.916595,256.659912 
	C319.993347,259.346497 316.015717,261.953644 311.473267,264.989899 
	C316.162201,268.121094 320.236115,270.884186 324.354736,273.578918 
	C327.897827,275.897064 329.694611,278.944305 328.578583,283.677002 
z"/>
<path fill="#28231F" opacity="1.000000" stroke="none" 
	d="
M111.443115,105.144363 
	C116.235901,104.752762 119.335938,106.677109 120.602425,110.855148 
	C121.908203,115.162773 119.739578,118.174034 116.218521,120.478233 
	C112.193977,123.111916 108.223282,125.827881 103.567520,128.952087 
	C108.415039,132.229187 113.231758,134.854660 117.194183,138.427551 
	C119.207108,140.242584 120.735809,143.850159 120.520767,146.487366 
	C120.345467,148.637207 117.596085,151.433975 115.351967,152.304962 
	C113.316895,153.094833 110.007957,152.347961 107.981102,151.104385 
	C100.191467,146.324966 92.621658,141.174210 85.106842,135.964371 
	C79.808525,132.291183 79.323898,126.144516 84.356255,122.637917 
	C93.071976,116.564705 102.138420,110.994820 111.443115,105.144363 
z"/>
<path fill="#28231F" opacity="1.000000" stroke="none" 
	d="
M187.374207,150.623169 
	C183.761002,144.654297 184.388794,141.310074 189.642471,137.653900 
	C193.696411,134.832657 197.837875,132.137146 202.495987,129.013138 
	C197.874878,125.908234 193.754227,123.203384 189.701599,120.400200 
	C184.823181,117.025826 183.644165,112.599327 186.431732,108.516769 
	C189.204193,104.456322 193.683914,103.910065 198.715866,107.196236 
	C205.818253,111.834541 212.896683,116.512566 219.901230,121.296761 
	C226.836517,126.033653 226.794495,132.004074 219.802856,136.767838 
	C212.792587,141.544296 205.662140,146.144089 198.635971,150.897614 
	C194.920380,153.411377 191.311523,153.898697 187.374207,150.623169 
z"/>
<path fill="#252120" opacity="1.000000" stroke="none" 
	d="
M321.045776,193.004181 
	C318.062225,192.998627 315.562988,193.110260 313.079224,192.962357 
	C308.337463,192.680008 305.106171,189.456863 305.032379,185.124222 
	C304.958466,180.782761 308.154053,177.126419 312.820160,177.081619 
	C328.935211,176.926865 345.053589,176.926773 361.168640,177.081070 
	C365.832428,177.125717 369.039032,180.789124 368.965302,185.122543 
	C368.888855,189.618546 365.505646,192.917496 360.416412,192.960510 
	C347.457428,193.070038 334.496948,193.001465 321.045776,193.004181 
z"/>
<path fill="#28231F" opacity="1.000000" stroke="none" 
	d="
M118.700478,217.009491 
	C114.421738,217.009506 110.604408,217.040756 106.787788,217.002075 
	C100.614899,216.939499 96.943855,213.858154 97.026703,208.868179 
	C97.109207,203.898911 100.725464,201.039978 107.041420,200.995789 
	C111.024193,200.967911 115.007507,200.966919 118.990265,200.996017 
	C125.266380,201.041885 128.913971,203.951019 128.971054,208.909424 
	C129.027847,213.842529 125.566391,216.700912 118.700478,217.009491 
z"/>
<path fill="#28231F" opacity="1.000000" stroke="none" 
	d="
M258.877228,214.061005 
	C255.166824,206.473343 258.351135,201.142410 266.309326,201.006470 
	C270.962341,200.926987 275.620056,200.905487 280.271698,201.018616 
	C285.613800,201.148529 289.107971,204.530334 288.971039,209.217682 
	C288.839905,213.706192 285.447205,216.850922 280.325684,216.977722 
	C275.507996,217.096985 270.662567,217.279984 265.874237,216.887314 
	C263.571198,216.698456 261.371643,215.248093 258.877228,214.061005 
z"/>
<path fill="#28231F" opacity="1.000000" stroke="none" 
	d="
M385.055420,185.784271 
	C385.983124,179.323013 388.291962,177.113846 394.046265,177.010529 
	C398.865021,176.924026 403.689636,176.891281 408.506165,177.027588 
	C413.585236,177.171341 416.944702,180.431030 416.971039,184.952988 
	C416.997314,189.467850 413.634674,192.805649 408.590668,192.967560 
	C403.941254,193.116791 399.281586,192.924744 394.629791,193.030823 
	C389.666992,193.143967 386.310638,191.190033 385.055420,185.784271 
z"/>
<path fill="#28231F" opacity="1.000000" stroke="none" 
	d="
M210.877197,238.061005 
	C207.166855,230.473282 210.351196,225.142334 218.309357,225.006424 
	C222.962372,224.926941 227.620056,224.905457 232.271729,225.018616 
	C237.614120,225.148560 241.107971,228.530060 240.971008,233.217697 
	C240.839859,237.706207 237.447205,240.850922 232.325684,240.977737 
	C227.507996,241.097015 222.662537,241.279968 217.874207,240.887314 
	C215.571198,240.698441 213.371613,239.248108 210.877197,238.061005 
z"/>
<path fill="#28231F" opacity="1.000000" stroke="none" 
	d="
M275.884125,224.990326 
	C278.186005,225.010635 280.044647,224.813583 281.827972,225.094498 
	C286.129547,225.772110 288.646942,228.384949 288.939392,232.765625 
	C289.212219,236.853287 286.079987,240.637360 281.796509,240.869522 
	C276.007904,241.183273 270.179810,241.164398 264.387756,240.887878 
	C260.032501,240.679962 257.005768,237.094315 257.026733,232.957825 
	C257.047729,228.814850 260.089539,225.398361 264.462158,225.085648 
	C268.094025,224.825912 271.757263,225.005386 275.884125,224.990326 
z"/>
<path fill="#28231F" opacity="1.000000" stroke="none" 
	d="
M287.589905,189.429214 
	C285.048065,190.832367 282.803925,192.618713 280.407104,192.854828 
	C275.467865,193.341370 270.443909,193.111160 265.460754,192.968552 
	C260.392883,192.823502 257.037048,189.532761 257.026703,185.011658 
	C257.016357,180.482895 260.366089,177.180023 265.427429,177.029907 
	C270.244293,176.887039 275.070129,176.914520 279.889191,177.010818 
	C287.287720,177.158661 290.420837,182.001038 287.589905,189.429214 
z"/>
<path fill="#28231F" opacity="1.000000" stroke="none" 
	d="
M98.396576,189.426559 
	C95.573952,181.986298 98.701988,177.158264 106.106651,177.010757 
	C110.925652,176.914764 115.751511,176.886581 120.568268,177.030014 
	C125.624702,177.180557 128.984665,180.495010 128.971054,185.016846 
	C128.957458,189.533081 125.593834,192.824402 120.525314,192.968842 
	C115.542160,193.110855 110.518242,193.341431 105.579094,192.854614 
	C103.181808,192.618317 100.937355,190.831482 98.396576,189.426559 
z"/>
<path fill="#28231F" opacity="1.000000" stroke="none" 
	d="
M102.914276,257.288391 
	C109.133484,257.109711 114.947334,256.911011 120.753403,257.046509 
	C125.732544,257.162720 129.086853,260.678589 128.971039,265.191040 
	C128.860397,269.502045 125.601471,272.779877 120.859901,272.955719 
	C116.049515,273.134094 111.225983,272.925903 106.411339,273.030823 
	C101.884064,273.129486 98.454338,271.395325 97.313416,266.933472 
	C96.165421,262.443970 98.281006,259.230225 102.914276,257.288391 
z"/>
<path fill="#28231F" opacity="1.000000" stroke="none" 
	d="
M241.055450,129.784271 
	C241.983063,123.323082 244.291992,121.113846 250.046249,121.010536 
	C254.865021,120.924011 259.689636,120.891281 264.506165,121.027596 
	C269.585266,121.171349 272.944763,124.431046 272.971069,128.953003 
	C272.997345,133.467880 269.634674,136.805649 264.590668,136.967560 
	C259.941254,137.116806 255.281570,136.924728 250.629791,137.030807 
	C245.666946,137.143982 242.310608,135.190048 241.055450,129.784271 
z"/>
<path fill="#262223" opacity="1.000000" stroke="none" 
	d="
M257.966431,377.010101 
	C254.665054,377.004059 251.839615,377.129669 249.031616,376.962402 
	C244.313400,376.681244 241.093414,373.422424 241.030914,369.102631 
	C240.968414,364.780914 244.160339,361.256897 248.817276,361.067993 
	C254.277527,360.846466 259.761078,360.842194 265.220703,361.071930 
	C269.860138,361.267181 273.055939,364.838654 272.966400,369.149963 
	C272.880829,373.269684 269.804291,376.541656 265.407532,376.932495 
	C263.104309,377.137207 260.770294,376.995422 257.966431,377.010101 
z"/>
<path fill="#28231F" opacity="1.000000" stroke="none" 
	d="
M409.160950,285.208771 
	C401.918579,289.987976 397.578186,290.015625 394.474030,285.498749 
	C391.264374,280.828430 392.993927,276.734528 400.188568,271.932495 
	C403.365784,269.811859 406.529327,267.670746 410.481689,265.012573 
	C405.653931,261.768768 400.859406,259.168793 396.903076,255.631332 
	C394.872009,253.815292 393.163818,250.182999 393.473846,247.634781 
	C393.754120,245.331390 396.630096,242.617508 399.018646,241.535675 
	C400.804321,240.726868 404.014587,241.615967 405.935150,242.806351 
	C413.706390,247.623001 421.313477,252.721039 428.806458,257.964752 
	C434.660828,262.061737 434.509674,268.063324 428.536682,272.234680 
	C422.265442,276.614319 415.831818,280.761505 409.160950,285.208771 
z"/>
<path fill="#231F21" opacity="1.000000" stroke="none" 
	d="
M350.000000,40.999508 
	C374.163239,40.999527 397.826508,40.997952 421.489746,41.003323 
	C422.988495,41.003662 424.526154,40.851898 425.978668,41.126118 
	C430.276154,41.937458 432.892670,44.587067 432.888489,49.005753 
	C432.884338,53.427219 430.251648,56.076897 425.958679,56.869980 
	C424.343079,57.168449 422.635925,56.996761 420.970520,56.996857 
	C346.314636,57.001041 271.658752,57.000477 197.002884,57.000465 
	C196.502960,57.000465 196.003006,57.002903 195.503098,56.999790 
	C188.777451,56.957905 185.032471,54.089130 185.040894,48.986351 
	C185.049347,43.862877 188.753052,41.006561 195.522171,41.005238 
	C246.848114,40.995201 298.174042,40.999607 350.000000,40.999508 
z"/>
<path fill="#222126" opacity="1.000000" stroke="none" 
	d="
M167.979080,52.746273 
	C163.933167,57.277294 152.768173,59.058388 148.706284,55.410069 
	C146.716995,53.623318 144.923233,49.683731 145.557541,47.425297 
	C146.270721,44.886055 149.525955,42.501732 152.230774,41.256233 
	C154.429977,40.243565 157.451889,40.924751 160.104233,41.007019 
	C166.979553,41.220268 170.011780,45.554173 167.979080,52.746273 
z"/>
<path fill="#222126" opacity="1.000000" stroke="none" 
	d="
M129.423828,56.970535 
	C126.501335,56.999012 124.010880,57.090675 121.528717,56.985878 
	C116.468376,56.772221 113.090210,53.586697 113.027527,49.102890 
	C112.964546,44.597404 116.312485,41.286964 121.314919,41.015820 
	C123.298676,40.908298 125.293091,40.965504 127.282059,40.992271 
	C132.809814,41.066681 136.140930,43.408543 136.884521,47.711208 
	C137.609467,51.905945 135.173874,55.107307 129.423828,56.970535 
z"/>
<path fill="#222126" opacity="1.000000" stroke="none" 
	d="
M99.089600,56.687172 
	C95.373253,56.871857 92.048096,57.129944 88.750252,56.932278 
	C84.115570,56.654476 80.923866,53.123947 81.027550,48.814198 
	C81.126862,44.686211 84.208641,41.435947 88.616203,41.059006 
	C90.922050,40.861805 93.258545,41.056126 95.577881,40.976612 
	C100.091324,40.821884 103.519272,42.586605 104.667175,47.051884 
	C105.822678,51.546692 103.708542,54.741207 99.089600,56.687172 
z"/>
</svg>