<svg id="svg" version="1.1" xmlns="http://www.w3.org/2000/svg" xmlns:xlink="http://www.w3.org/1999/xlink" width="400" height="400" viewBox="0, 0, 400,400"><g id="svgg"><path id="path0" d="M50.000 147.404 C 50.000 242.189,49.750 234.021,52.712 236.200 C 53.993 237.142,343.780 237.710,346.053 236.775 C 347.485 236.186,348.997 234.483,349.546 232.840 C 349.879 231.842,350.000 209.037,350.000 147.140 L 350.000 62.800 200.000 62.800 L 50.000 62.800 50.000 147.404 M135.003 69.765 C 137.547 71.432,138.390 75.381,136.800 78.188 C 136.360 78.965,135.640 80.230,135.200 81.000 C 134.760 81.770,134.066 82.985,133.657 83.700 C 108.461 127.811,111.218 123.279,108.904 124.388 C 103.342 127.053,97.911 121.249,100.760 115.684 C 101.177 114.868,103.270 111.140,105.410 107.400 C 107.550 103.660,109.845 99.610,110.511 98.400 C 111.177 97.190,112.055 95.722,112.461 95.138 C 112.867 94.554,113.200 93.977,113.200 93.856 C 113.200 93.734,113.767 92.682,114.460 91.518 C 115.154 90.353,116.279 88.396,116.960 87.169 C 121.977 78.142,126.634 70.479,127.494 69.838 C 129.467 68.365,132.817 68.333,135.003 69.765 M90.329 81.824 C 92.996 83.155,94.385 86.198,93.601 88.996 C 92.994 91.166,91.825 92.260,85.700 96.394 C 83.005 98.212,80.800 99.832,80.800 99.993 C 80.800 100.153,83.401 102.044,86.580 104.193 C 94.489 109.541,95.881 112.732,92.120 116.888 C 88.815 120.541,87.240 120.027,73.400 110.785 C 64.818 105.054,63.936 104.359,62.900 102.505 C 61.877 100.676,62.328 97.948,64.000 95.846 C 64.582 95.114,80.976 83.982,84.200 82.129 C 86.081 81.048,88.529 80.926,90.329 81.824 M156.282 84.048 C 180.546 99.681,180.615 99.950,163.257 111.377 C 149.834 120.214,149.325 120.378,145.665 117.050 C 141.460 113.227,142.984 109.587,151.079 104.112 C 154.226 101.985,156.800 100.130,156.800 99.990 C 156.800 99.851,154.188 97.986,150.996 95.845 C 143.757 90.992,142.320 88.689,144.190 84.941 C 146.527 80.255,149.997 79.999,156.282 84.048 M209.322 94.525 C 213.589 97.109,213.589 102.891,209.322 105.475 C 207.871 106.353,207.435 106.396,200.000 106.396 C 189.758 106.396,187.605 105.285,187.605 100.000 C 187.605 94.715,189.758 93.604,200.000 93.604 C 207.435 93.604,207.871 93.647,209.322 94.525 M296.717 94.450 C 301.051 96.763,301.051 103.237,296.717 105.550 C 294.655 106.651,231.328 106.914,228.741 105.833 C 223.615 103.691,223.625 96.436,228.758 94.132 C 230.972 93.139,294.819 93.437,296.717 94.450 M96.799 138.225 C 101.183 140.789,101.112 147.189,96.674 149.403 C 95.167 150.155,80.087 150.278,78.674 149.550 C 73.112 146.685,73.965 138.816,79.975 137.549 C 83.235 136.862,95.297 137.347,96.799 138.225 M172.136 138.400 C 176.385 141.278,175.958 147.165,171.326 149.550 C 169.444 150.519,117.373 150.148,115.602 149.153 C 110.584 146.333,111.818 138.704,117.474 137.579 C 118.313 137.412,130.623 137.304,144.830 137.338 L 170.659 137.400 172.136 138.400 M222.140 138.404 C 226.385 141.278,225.955 147.166,221.326 149.550 C 219.913 150.278,204.833 150.155,203.326 149.403 C 199.197 147.343,198.785 141.063,202.615 138.553 C 205.292 136.799,219.609 136.689,222.140 138.404 M284.400 138.222 C 288.539 140.654,288.538 146.826,284.398 149.153 C 282.113 150.437,242.595 150.482,240.496 149.202 C 235.597 146.215,237.039 138.717,242.734 137.567 C 246.590 136.789,282.932 137.360,284.400 138.222 M322.140 138.404 C 326.385 141.278,325.955 147.166,321.326 149.550 C 319.913 150.278,304.833 150.155,303.326 149.403 C 299.197 147.343,298.785 141.063,302.615 138.553 C 305.292 136.799,319.609 136.689,322.140 138.404 M96.412 156.900 C 101.025 159.230,101.242 165.455,96.798 167.953 C 95.044 168.939,80.438 169.259,78.674 168.350 C 73.794 165.837,73.632 159.434,78.384 156.921 C 81.010 155.532,93.675 155.517,96.412 156.900 M183.498 156.615 C 188.522 158.714,189.048 165.340,184.398 167.953 C 182.023 169.288,117.977 169.288,115.602 167.953 C 111.067 165.404,111.412 158.951,116.200 156.752 C 118.461 155.714,181.037 155.587,183.498 156.615 M221.616 156.921 C 226.414 159.459,226.249 165.537,221.305 168.300 C 219.625 169.239,205.032 168.982,203.254 167.981 C 198.486 165.298,199.063 158.278,204.200 156.482 C 206.805 155.572,219.678 155.896,221.616 156.921 M321.479 156.838 C 326.294 159.169,326.318 165.742,321.520 168.238 C 319.681 169.195,242.253 169.006,240.600 168.041 C 236.080 165.401,236.797 158.077,241.731 156.490 C 244.619 155.561,319.517 155.888,321.479 156.838 M146.051 175.365 C 150.934 177.411,151.378 184.179,146.798 186.753 C 144.948 187.793,80.522 188.121,78.695 187.100 C 73.828 184.380,73.519 178.572,78.095 175.829 L 79.800 174.808 112.251 174.804 C 139.308 174.801,144.927 174.894,146.051 175.365 M183.651 175.365 C 188.763 177.507,188.888 184.501,183.859 187.010 C 182.286 187.795,167.672 187.870,166.295 187.100 C 161.052 184.170,161.075 177.676,166.336 175.338 C 167.964 174.615,181.912 174.637,183.651 175.365 M221.685 175.696 C 226.396 178.344,226.196 184.367,221.305 187.100 C 219.589 188.059,205.029 187.780,203.202 186.753 C 198.626 184.181,199.056 177.507,203.936 175.338 C 206.103 174.375,219.827 174.651,221.685 175.696 M296.051 175.365 C 299.855 176.959,301.107 181.159,298.948 185.086 C 298.369 186.139,296.953 188.620,295.802 190.600 C 294.650 192.580,293.026 195.460,292.192 197.000 C 291.359 198.540,290.345 200.278,289.938 200.862 C 289.532 201.446,289.200 202.034,289.200 202.169 C 289.200 202.304,288.480 203.600,287.600 205.048 C 286.720 206.497,286.000 207.741,286.000 207.814 C 286.000 207.886,283.750 211.851,281.000 216.624 C 278.250 221.397,276.000 225.376,276.000 225.467 C 276.000 226.049,273.056 229.839,272.127 230.451 C 268.176 233.057,262.504 229.934,262.429 225.112 C 262.401 223.295,262.573 222.851,264.757 219.100 C 265.173 218.385,267.625 214.110,270.205 209.600 C 272.785 205.090,275.234 200.815,275.648 200.100 C 276.062 199.385,276.760 198.170,277.200 197.400 C 277.640 196.630,278.360 195.370,278.800 194.600 C 279.240 193.830,279.960 192.570,280.400 191.800 C 280.840 191.030,281.587 189.725,282.059 188.900 C 282.531 188.075,283.416 186.500,284.026 185.400 C 288.202 177.861,289.132 176.563,291.042 175.609 C 292.915 174.675,294.248 174.610,296.051 175.365 M314.440 187.669 C 317.022 188.560,335.724 201.405,336.700 202.957 C 338.165 205.288,337.897 208.195,336.000 210.543 C 335.445 211.230,318.256 222.778,315.288 224.457 C 310.337 227.259,304.351 221.645,306.585 216.297 C 307.310 214.562,308.194 213.819,314.313 209.800 C 316.992 208.040,319.185 206.420,319.186 206.200 C 319.187 205.980,316.986 204.375,314.294 202.634 C 308.570 198.931,307.336 197.880,306.567 196.051 C 304.501 191.139,309.395 185.928,314.440 187.669 M253.377 188.381 C 256.009 190.116,257.091 193.692,255.780 196.320 C 254.985 197.914,254.012 198.708,248.087 202.600 C 245.408 204.360,243.215 205.980,243.215 206.200 C 243.215 206.420,245.408 208.040,248.087 209.800 C 254.206 213.819,255.090 214.562,255.815 216.297 C 258.147 221.880,252.491 227.093,247.084 224.344 C 245.737 223.658,231.078 213.941,227.312 211.237 C 225.268 209.769,224.356 206.357,225.365 203.949 C 226.159 202.053,226.620 201.693,237.778 194.253 C 248.865 186.860,250.268 186.332,253.377 188.381 M96.674 200.597 C 101.104 202.807,101.183 209.213,96.813 211.765 C 95.145 212.740,84.634 213.188,80.691 212.454 C 73.997 211.207,72.693 203.734,78.600 200.467 C 79.910 199.742,95.181 199.852,96.674 200.597 M184.398 200.847 C 188.534 203.171,188.543 209.152,184.415 211.720 L 183.000 212.600 150.000 212.600 C 117.422 212.600,116.982 212.589,115.600 211.778 C 111.489 209.363,111.457 203.232,115.543 200.863 C 117.843 199.530,182.028 199.515,184.398 200.847 " stroke="none" fill="#f9c904" fill-rule="evenodd"></path><path id="path1" d="M53.283 25.867 C 50.298 27.339,50.000 28.614,50.000 39.935 L 50.000 50.000 200.000 50.000 L 350.000 50.000 350.000 39.935 C 350.000 28.550,349.703 27.299,346.653 25.852 C 344.543 24.850,55.315 24.866,53.283 25.867 M77.998 32.047 C 81.977 34.283,82.220 40.143,78.441 42.686 C 76.441 44.031,67.924 44.058,65.554 42.726 C 61.151 40.251,61.607 33.839,66.336 31.738 C 68.319 30.857,76.255 31.067,77.998 32.047 M102.832 32.016 C 107.411 34.352,107.347 40.630,102.720 43.038 C 100.906 43.982,92.154 43.813,90.496 42.802 C 86.560 40.402,86.697 34.409,90.743 32.063 C 92.859 30.836,100.461 30.807,102.832 32.016 M127.998 32.047 C 131.977 34.283,132.220 40.143,128.441 42.686 C 126.441 44.031,117.924 44.058,115.554 42.726 C 111.151 40.251,111.607 33.839,116.336 31.738 C 118.319 30.857,126.255 31.067,127.998 32.047 M333.659 31.767 C 338.337 33.721,338.799 40.279,334.433 42.734 L 332.891 43.600 240.626 43.600 C 140.895 43.600,147.348 43.740,145.348 41.538 C 142.590 38.502,143.627 33.445,147.341 31.817 C 149.256 30.978,331.653 30.929,333.659 31.767 M27.981 88.501 C 27.245 88.997,26.274 90.032,25.822 90.801 L 25.000 92.200 25.000 177.200 L 25.000 262.200 199.900 262.300 L 374.800 262.401 374.900 201.900 C 375.089 87.449,375.121 92.407,374.178 90.801 C 372.644 88.189,371.239 87.600,366.541 87.600 L 362.400 87.600 362.400 160.934 C 362.400 234.167,362.399 234.271,361.566 236.834 C 359.526 243.114,354.604 247.749,348.206 249.415 C 345.335 250.163,55.721 250.314,52.477 249.569 C 47.367 248.396,41.772 244.155,39.655 239.852 C 37.509 235.491,37.610 239.393,37.605 160.700 L 37.600 87.600 33.459 87.600 C 29.825 87.600,29.154 87.710,27.981 88.501 " stroke="none" fill="#137af7" fill-rule="evenodd"></path><path id="path2" d="M25.200 284.976 C 25.200 291.063,25.351 294.846,25.600 295.000 C 25.820 295.136,26.000 295.563,26.000 295.949 C 26.000 296.829,27.839 298.613,29.326 299.175 C 30.915 299.775,369.085 299.775,370.674 299.175 C 372.161 298.613,374.000 296.829,374.000 295.949 C 374.000 295.563,374.180 295.136,374.400 295.000 C 374.649 294.846,374.800 291.063,374.800 284.976 L 374.800 275.200 200.000 275.200 L 25.200 275.200 25.200 284.976 M208.133 281.230 C 213.605 282.750,214.504 290.488,209.517 293.150 C 207.888 294.019,191.200 294.518,191.200 293.698 C 191.200 293.531,190.693 293.171,190.073 292.896 C 186.780 291.439,186.239 285.280,189.171 282.627 C 191.080 280.899,203.614 279.975,208.133 281.230 M131.000 350.800 C 130.864 351.020,130.307 351.200,129.763 351.200 C 128.451 351.200,126.000 353.651,126.000 354.963 C 126.000 355.507,125.820 356.064,125.600 356.200 C 125.352 356.353,125.200 359.937,125.200 365.624 L 125.200 374.800 200.000 374.800 L 274.800 374.800 274.800 365.600 C 274.800 359.733,274.655 356.400,274.400 356.400 C 274.180 356.400,274.000 355.854,274.000 355.187 C 274.000 353.651,271.686 351.200,270.237 351.200 C 269.693 351.200,269.136 351.020,269.000 350.800 C 268.837 350.536,245.404 350.400,200.000 350.400 C 154.596 350.400,131.163 350.536,131.000 350.800 " stroke="none" fill="#9fa4a7" fill-rule="evenodd"></path><path id="path3" d="M50.400 12.400 C 50.400 12.620,49.961 12.800,49.424 12.800 C 48.887 12.800,48.336 12.980,48.200 13.200 C 48.064 13.420,47.686 13.600,47.360 13.600 C 47.033 13.600,46.380 13.960,45.908 14.400 C 45.436 14.840,44.858 15.205,44.625 15.212 C 44.391 15.219,43.750 15.771,43.200 16.440 C 42.650 17.108,41.615 18.267,40.900 19.014 C 40.185 19.762,39.600 20.649,39.600 20.987 C 39.600 21.324,39.420 21.600,39.200 21.600 C 38.980 21.600,38.800 21.960,38.800 22.400 C 38.800 22.840,38.620 23.200,38.400 23.200 C 38.180 23.200,38.000 23.740,38.000 24.400 C 38.000 25.060,37.820 25.600,37.600 25.600 C 37.338 25.600,37.200 34.055,37.200 50.165 L 37.200 74.730 30.900 74.865 C 24.674 74.998,24.570 75.015,22.051 76.319 C 19.458 77.660,14.400 82.372,14.400 83.446 C 14.400 83.751,14.220 84.000,14.000 84.000 C 13.780 84.000,13.600 84.360,13.600 84.800 C 13.600 85.240,13.420 85.600,13.200 85.600 C 12.980 85.600,12.800 86.140,12.800 86.800 C 12.800 87.460,12.620 88.000,12.400 88.000 C 12.134 88.000,12.000 123.533,12.000 193.800 C 12.000 264.067,12.134 299.600,12.400 299.600 C 12.620 299.600,12.800 300.039,12.800 300.576 C 12.800 301.113,12.980 301.664,13.200 301.800 C 13.420 301.936,13.600 302.397,13.600 302.824 C 13.600 303.251,13.738 303.600,13.906 303.600 C 14.074 303.600,14.646 304.304,15.177 305.163 C 15.709 306.023,16.490 306.968,16.912 307.263 C 17.335 307.559,18.328 308.385,19.119 309.100 C 19.909 309.815,20.791 310.400,21.078 310.400 C 21.365 310.400,21.600 310.580,21.600 310.800 C 21.600 311.020,21.960 311.200,22.400 311.200 C 22.840 311.200,23.200 311.380,23.200 311.600 C 23.200 311.820,23.740 312.000,24.400 312.000 C 25.060 312.000,25.600 312.180,25.600 312.400 C 25.600 312.665,47.600 312.800,90.800 312.800 L 156.000 312.800 156.000 325.000 L 156.000 337.200 140.800 337.200 C 130.933 337.200,125.600 337.340,125.600 337.600 C 125.600 337.820,125.060 338.000,124.400 338.000 C 123.740 338.000,123.200 338.180,123.200 338.400 C 123.200 338.620,122.840 338.800,122.400 338.800 C 121.960 338.800,121.600 338.980,121.600 339.200 C 121.600 339.420,121.324 339.600,120.987 339.600 C 120.649 339.600,119.775 340.185,119.045 340.900 C 118.314 341.615,117.362 342.441,116.930 342.737 C 116.498 343.032,115.709 343.977,115.177 344.837 C 114.646 345.696,114.074 346.400,113.906 346.400 C 113.738 346.400,113.600 346.749,113.600 347.176 C 113.600 347.603,113.420 348.064,113.200 348.200 C 112.980 348.336,112.800 348.887,112.800 349.424 C 112.800 349.961,112.620 350.400,112.400 350.400 C 112.140 350.400,112.000 356.400,112.000 367.600 C 112.000 377.060,112.137 384.800,112.305 384.800 C 112.473 384.800,112.788 385.205,113.005 385.700 C 113.222 386.195,113.805 386.778,114.300 386.995 C 114.795 387.212,115.200 387.527,115.200 387.695 C 115.200 388.261,284.352 388.067,285.046 387.500 C 285.827 386.861,286.861 385.827,287.500 385.046 C 288.139 384.263,288.237 350.400,287.600 350.400 C 287.380 350.400,287.200 349.961,287.200 349.424 C 287.200 348.887,287.020 348.336,286.800 348.200 C 286.580 348.064,286.400 347.686,286.400 347.360 C 286.400 347.033,286.040 346.380,285.600 345.908 C 285.160 345.436,284.795 344.858,284.788 344.625 C 284.781 344.391,284.229 343.750,283.560 343.200 C 282.892 342.650,281.733 341.615,280.986 340.900 C 280.238 340.185,279.351 339.600,279.013 339.600 C 278.676 339.600,278.400 339.420,278.400 339.200 C 278.400 338.980,278.040 338.800,277.600 338.800 C 277.160 338.800,276.800 338.620,276.800 338.400 C 276.800 338.180,276.260 338.000,275.600 338.000 C 274.940 338.000,274.400 337.820,274.400 337.600 C 274.400 337.340,269.067 337.200,259.200 337.200 L 244.000 337.200 244.000 325.000 L 244.000 312.800 309.200 312.800 C 352.400 312.800,374.400 312.665,374.400 312.400 C 374.400 312.180,374.940 312.000,375.600 312.000 C 376.260 312.000,376.800 311.820,376.800 311.600 C 376.800 311.380,377.160 311.200,377.600 311.200 C 378.040 311.200,378.400 311.020,378.400 310.800 C 378.400 310.580,378.635 310.400,378.922 310.400 C 379.390 310.400,380.504 309.518,383.600 306.697 C 384.150 306.196,384.842 305.359,385.138 304.838 C 385.433 304.317,386.018 303.280,386.438 302.533 C 386.857 301.786,387.200 300.821,387.200 300.388 C 387.200 299.955,387.380 299.600,387.600 299.600 C 387.866 299.600,388.000 264.067,388.000 193.800 C 388.000 123.533,387.866 88.000,387.600 88.000 C 387.380 88.000,387.200 87.460,387.200 86.800 C 387.200 86.140,387.020 85.600,386.800 85.600 C 386.580 85.600,386.400 85.240,386.400 84.800 C 386.400 84.360,386.250 84.000,386.068 84.000 C 385.885 84.000,385.480 83.508,385.168 82.906 C 382.431 77.632,377.251 75.040,369.100 74.865 L 362.800 74.730 362.800 50.165 C 362.800 34.055,362.662 25.600,362.400 25.600 C 362.180 25.600,362.000 25.060,362.000 24.400 C 362.000 23.740,361.820 23.200,361.600 23.200 C 361.380 23.200,361.200 22.840,361.200 22.400 C 361.200 21.960,361.020 21.600,360.800 21.600 C 360.580 21.600,360.400 21.365,360.400 21.078 C 360.400 20.791,359.815 19.896,359.100 19.089 C 358.385 18.282,357.350 17.082,356.800 16.423 C 356.250 15.763,355.609 15.219,355.375 15.212 C 355.142 15.205,354.564 14.840,354.092 14.400 C 353.620 13.960,352.967 13.600,352.640 13.600 C 352.314 13.600,351.936 13.420,351.800 13.200 C 351.664 12.980,351.113 12.800,350.576 12.800 C 350.039 12.800,349.600 12.620,349.600 12.400 C 349.600 12.134,299.467 12.000,200.000 12.000 C 100.533 12.000,50.400 12.134,50.400 12.400 M346.653 25.852 C 349.703 27.299,350.000 28.550,350.000 39.935 L 350.000 50.000 200.000 50.000 L 50.000 50.000 50.000 39.935 C 50.000 28.614,50.298 27.339,53.283 25.867 C 55.315 24.866,344.543 24.850,346.653 25.852 M66.336 31.738 C 61.607 33.839,61.151 40.251,65.554 42.726 C 67.924 44.058,76.441 44.031,78.441 42.686 C 82.220 40.143,81.977 34.283,77.998 32.047 C 76.255 31.067,68.319 30.857,66.336 31.738 M90.743 32.063 C 86.697 34.409,86.560 40.402,90.496 42.802 C 92.154 43.813,100.906 43.982,102.720 43.038 C 107.347 40.630,107.411 34.352,102.832 32.016 C 100.461 30.807,92.859 30.836,90.743 32.063 M116.336 31.738 C 111.607 33.839,111.151 40.251,115.554 42.726 C 117.924 44.058,126.441 44.031,128.441 42.686 C 132.220 40.143,131.977 34.283,127.998 32.047 C 126.255 31.067,118.319 30.857,116.336 31.738 M147.341 31.817 C 143.627 33.445,142.590 38.502,145.348 41.538 C 147.348 43.740,140.895 43.600,240.626 43.600 L 332.891 43.600 334.433 42.734 C 338.799 40.279,338.337 33.721,333.659 31.767 C 331.653 30.929,149.256 30.978,147.341 31.817 M350.000 147.646 L 350.000 232.891 349.153 234.398 C 348.687 235.227,347.627 236.287,346.798 236.753 L 345.291 237.600 200.000 237.600 L 54.709 237.600 53.254 236.781 C 52.455 236.331,51.395 235.344,50.900 234.587 L 50.000 233.211 50.000 147.806 L 50.000 62.400 200.000 62.400 L 350.000 62.400 350.000 147.646 M128.400 69.650 C 127.630 70.116,126.864 70.700,126.699 70.948 C 126.376 71.432,124.762 74.169,123.543 76.300 C 123.135 77.015,122.440 78.230,122.000 79.000 C 121.560 79.770,120.840 81.030,120.400 81.800 C 119.960 82.570,119.213 83.875,118.741 84.700 C 118.269 85.525,117.343 87.190,116.683 88.400 C 116.024 89.610,115.348 90.780,115.182 91.000 C 114.917 91.349,108.960 101.710,106.098 106.800 C 105.541 107.790,104.143 110.242,102.991 112.249 C 100.257 117.010,99.804 118.393,100.392 120.175 C 101.706 124.158,105.734 125.900,109.168 123.970 C 110.610 123.159,110.913 122.810,112.395 120.245 C 115.341 115.146,124.334 99.381,125.313 97.600 C 125.978 96.390,126.855 94.922,127.261 94.338 C 127.667 93.754,128.000 93.166,128.000 93.031 C 128.000 92.896,128.720 91.600,129.600 90.152 C 130.480 88.703,131.200 87.463,131.200 87.396 C 131.200 87.329,132.488 85.053,134.062 82.337 C 137.485 76.433,137.985 74.053,136.321 71.600 C 134.515 68.937,131.006 68.073,128.400 69.650 M85.200 81.897 C 83.091 82.717,64.270 95.794,63.588 96.913 C 60.953 101.235,62.308 102.990,74.686 111.287 L 85.000 118.200 87.471 118.200 C 90.322 118.200,91.772 117.387,92.881 115.165 C 94.810 111.297,93.533 109.243,86.183 104.400 C 83.012 102.310,80.417 100.330,80.417 100.000 C 80.417 99.670,83.015 97.693,86.201 95.600 C 92.306 91.589,93.610 90.125,93.593 87.304 C 93.571 83.568,88.801 80.495,85.200 81.897 M146.896 82.398 C 141.492 85.693,142.981 90.059,151.399 95.606 C 154.565 97.693,157.156 99.670,157.156 100.000 C 157.157 100.330,154.569 102.310,151.405 104.400 C 147.210 107.171,145.430 108.594,144.827 109.654 C 141.919 114.769,147.623 120.468,152.920 117.741 C 157.574 115.344,173.064 104.382,173.900 102.893 C 176.357 98.520,175.191 96.971,163.600 89.212 C 151.050 80.810,150.122 80.431,146.896 82.398 M37.605 160.700 C 37.610 239.393,37.509 235.491,39.655 239.852 C 41.772 244.155,47.367 248.396,52.477 249.569 C 55.721 250.314,345.335 250.163,348.206 249.415 C 354.604 247.749,359.526 243.114,361.566 236.834 C 362.399 234.271,362.400 234.167,362.400 160.934 L 362.400 87.600 366.541 87.600 C 371.239 87.600,372.644 88.189,374.178 90.801 C 375.121 92.407,375.089 87.449,374.900 201.900 L 374.800 262.401 199.900 262.300 L 25.000 262.200 25.000 177.200 L 25.000 92.200 25.822 90.801 C 27.356 88.189,28.761 87.600,33.459 87.600 L 37.600 87.600 37.605 160.700 M190.710 94.882 C 186.797 97.150,186.830 102.920,190.767 105.134 C 192.200 105.939,192.853 106.000,200.000 106.000 C 208.993 106.000,210.118 105.664,211.587 102.538 C 212.985 99.564,212.025 96.436,209.233 94.866 C 206.888 93.548,192.990 93.560,190.710 94.882 M228.483 94.667 C 224.358 96.700,224.311 102.854,228.402 105.153 C 230.348 106.247,294.250 106.515,296.320 105.438 C 300.909 103.050,300.909 96.950,296.320 94.562 C 294.569 93.651,230.343 93.751,228.483 94.667 M78.566 138.433 C 73.796 140.749,74.234 147.267,79.302 149.385 C 81.153 150.158,92.842 150.259,95.300 149.523 C 100.528 147.956,101.331 141.149,96.600 138.507 C 94.296 137.220,81.174 137.167,78.566 138.433 M116.000 138.439 C 111.256 141.220,111.943 147.797,117.160 149.545 C 119.480 150.322,168.808 150.175,170.698 149.385 C 175.825 147.243,176.206 140.701,171.338 138.413 C 168.622 137.136,118.182 137.160,116.000 138.439 M203.400 138.507 C 198.669 141.149,199.472 147.956,204.700 149.523 C 207.158 150.259,218.847 150.158,220.698 149.385 C 225.825 147.243,226.206 140.701,221.338 138.413 C 218.620 137.135,205.735 137.203,203.400 138.507 M241.536 138.138 C 236.596 140.333,236.394 146.681,241.186 149.100 C 243.262 150.148,279.873 150.539,282.840 149.545 C 288.133 147.772,288.749 141.065,283.862 138.429 C 282.015 137.433,243.715 137.170,241.536 138.138 M303.400 138.507 C 298.669 141.149,299.472 147.956,304.700 149.523 C 307.158 150.259,318.847 150.158,320.698 149.385 C 325.825 147.243,326.206 140.701,321.338 138.413 C 318.620 137.135,305.735 137.203,303.400 138.507 M78.343 157.263 C 73.451 160.100,74.639 167.120,80.231 168.417 C 82.435 168.928,92.892 168.889,94.986 168.362 C 100.744 166.912,101.468 159.227,96.059 156.967 C 93.652 155.961,80.201 156.186,78.343 157.263 M115.749 157.397 C 111.714 159.816,111.849 165.339,116.001 167.778 C 118.199 169.070,181.801 169.070,183.999 167.778 C 188.172 165.327,188.286 159.774,184.213 157.386 L 182.530 156.400 149.965 156.404 L 117.400 156.408 115.749 157.397 M203.958 156.932 C 198.538 159.365,199.235 166.907,205.014 168.362 C 207.603 169.014,217.864 168.923,220.174 168.228 C 225.590 166.598,226.449 159.974,221.598 157.247 C 219.829 156.253,206.021 156.007,203.958 156.932 M240.930 157.250 C 236.642 159.331,236.736 165.686,241.086 167.848 C 243.562 169.078,319.498 169.013,321.599 167.778 C 325.797 165.312,325.797 159.607,321.598 157.247 C 319.277 155.943,243.619 155.946,240.930 157.250 M78.343 176.063 C 74.572 178.250,74.247 183.588,77.729 186.165 C 78.832 186.980,142.370 187.770,145.493 187.007 C 150.740 185.724,151.135 177.888,146.059 175.767 C 143.482 174.690,80.234 174.967,78.343 176.063 M166.035 175.919 C 161.901 177.982,161.707 183.970,165.696 186.402 C 166.882 187.125,167.721 187.197,175.000 187.197 C 182.279 187.197,183.118 187.125,184.304 186.402 C 188.293 183.970,188.099 177.982,183.965 175.919 C 181.949 174.914,168.051 174.914,166.035 175.919 M203.936 175.738 C 199.134 177.872,198.985 184.195,203.680 186.638 C 205.486 187.578,219.772 187.434,221.606 186.458 C 225.695 184.283,225.690 178.347,221.598 176.047 C 219.822 175.049,206.030 174.807,203.936 175.738 M290.800 176.050 C 290.030 176.516,289.264 177.100,289.099 177.348 C 288.655 178.013,286.833 181.137,285.685 183.200 C 285.134 184.190,282.305 189.140,279.398 194.200 C 276.491 199.260,273.659 204.210,273.105 205.200 C 272.551 206.190,270.057 210.510,267.563 214.800 C 261.575 225.102,261.338 228.012,266.296 230.388 C 270.508 232.406,272.668 230.820,277.440 222.200 C 277.683 221.760,278.476 220.320,279.202 219.000 C 279.928 217.680,280.855 216.122,281.261 215.538 C 281.667 214.954,282.000 214.366,282.000 214.231 C 282.000 214.096,282.720 212.800,283.600 211.352 C 284.480 209.903,285.200 208.655,285.200 208.578 C 285.200 208.502,286.433 206.315,287.939 203.719 C 289.445 201.124,291.130 198.190,291.682 197.200 C 292.614 195.530,293.021 194.813,295.200 191.000 C 295.640 190.230,296.360 188.970,296.800 188.200 C 297.240 187.430,297.931 186.215,298.336 185.500 C 301.969 179.088,296.700 172.481,290.800 176.050 M247.600 188.349 C 245.645 189.349,228.405 200.710,227.265 201.748 C 225.187 203.641,224.666 206.753,226.028 209.146 C 226.792 210.489,242.897 221.803,247.288 224.081 C 251.427 226.228,256.265 222.985,255.878 218.323 C 255.646 215.529,254.911 214.744,248.585 210.529 C 245.403 208.409,242.806 206.478,242.813 206.237 C 242.820 205.997,245.384 204.090,248.510 202.000 C 251.939 199.707,254.551 197.661,255.096 196.841 C 258.258 192.085,252.669 185.754,247.600 188.349 M309.548 188.480 C 305.870 190.532,305.430 195.703,308.700 198.454 C 309.321 198.977,312.027 200.840,314.714 202.594 C 317.402 204.348,319.600 205.984,319.600 206.229 C 319.600 206.474,316.995 208.410,313.811 210.531 C 305.330 216.182,303.898 220.747,309.602 223.953 C 312.879 225.795,312.823 225.817,324.983 217.799 C 336.981 209.887,337.740 209.083,337.076 204.989 C 336.714 202.758,335.874 202.034,325.713 195.190 C 313.410 186.905,312.816 186.658,309.548 188.480 M79.000 200.752 C 74.113 202.996,73.915 209.356,78.662 211.587 C 81.380 212.865,94.265 212.797,96.600 211.493 C 101.331 208.851,100.528 202.044,95.300 200.477 C 92.582 199.663,80.945 199.859,79.000 200.752 M117.000 200.482 C 111.856 202.280,111.335 208.981,116.138 211.571 C 117.657 212.390,118.057 212.400,150.000 212.400 C 181.943 212.400,182.343 212.390,183.862 211.571 C 188.749 208.935,188.133 202.228,182.840 200.455 C 181.012 199.843,118.756 199.869,117.000 200.482 M375.107 284.799 C 375.234 296.363,374.913 297.673,371.520 299.438 C 370.087 300.184,30.120 300.295,28.674 299.550 C 27.215 298.799,25.960 297.472,25.365 296.051 C 24.771 294.632,24.501 275.632,25.067 275.066 C 25.214 274.919,104.009 274.844,200.167 274.900 L 375.000 275.000 375.107 284.799 M191.874 281.763 C 188.099 283.149,186.709 286.513,188.413 290.138 C 189.882 293.264,191.007 293.600,200.000 293.600 C 207.147 293.600,207.800 293.539,209.233 292.734 C 213.251 290.475,213.232 284.591,209.200 282.222 C 207.379 281.153,194.468 280.811,191.874 281.763 M231.200 325.200 L 231.200 337.600 200.000 337.600 L 168.800 337.600 168.800 325.200 L 168.800 312.800 200.000 312.800 L 231.200 312.800 231.200 325.200 M271.529 350.624 C 274.852 352.282,275.268 354.015,275.120 365.600 L 275.000 375.000 200.000 375.000 L 125.000 375.000 124.888 365.400 C 124.753 353.759,125.066 352.476,128.503 350.575 C 130.020 349.736,269.845 349.784,271.529 350.624 " stroke="none" fill="#241c24" fill-rule="evenodd"></path><path id="path4" d="M124.900 62.700 C 166.205 62.756,233.795 62.756,275.100 62.700 C 316.405 62.644,282.610 62.598,200.000 62.598 C 117.390 62.598,83.595 62.644,124.900 62.700 M127.944 69.624 L 127.000 70.447 128.200 69.745 C 129.779 68.820,129.803 68.800,129.311 68.800 C 129.079 68.800,128.464 69.171,127.944 69.624 M135.714 70.731 C 137.043 72.360,137.359 73.517,137.099 75.817 C 136.990 76.789,137.057 77.488,137.250 77.369 C 138.476 76.611,137.320 71.721,135.555 70.199 C 134.786 69.536,134.813 69.627,135.714 70.731 M125.853 71.700 L 125.133 73.000 125.958 72.000 C 126.689 71.113,127.014 70.400,126.686 70.400 C 126.624 70.400,126.249 70.985,125.853 71.700 M124.253 74.500 L 123.533 75.800 124.358 74.800 C 125.089 73.913,125.414 73.200,125.086 73.200 C 125.024 73.200,124.649 73.785,124.253 74.500 M122.653 77.300 L 121.933 78.600 122.758 77.600 C 123.489 76.713,123.814 76.000,123.486 76.000 C 123.424 76.000,123.049 76.585,122.653 77.300 M135.786 79.300 L 135.152 80.600 135.967 79.600 C 136.752 78.637,137.008 78.000,136.610 78.000 C 136.506 78.000,136.135 78.585,135.786 79.300 M121.053 80.100 L 120.333 81.400 121.158 80.400 C 121.889 79.513,122.214 78.800,121.886 78.800 C 121.824 78.800,121.449 79.385,121.053 80.100 M134.186 82.100 L 133.552 83.400 134.367 82.400 C 135.152 81.437,135.408 80.800,135.010 80.800 C 134.906 80.800,134.535 81.385,134.186 82.100 M85.338 81.506 C 85.084 81.668,86.012 81.800,87.400 81.800 C 88.788 81.800,89.840 81.665,89.738 81.500 C 89.500 81.115,85.946 81.119,85.338 81.506 M147.400 81.666 C 146.275 82.286,144.400 84.076,144.400 84.529 C 144.400 84.737,144.776 84.430,145.235 83.846 C 146.951 81.665,150.349 80.932,152.820 82.210 C 153.469 82.546,154.000 82.731,154.000 82.621 C 154.000 81.518,148.984 80.792,147.400 81.666 M119.386 82.900 L 118.752 84.200 119.567 83.200 C 120.352 82.237,120.608 81.600,120.210 81.600 C 120.106 81.600,119.735 82.185,119.386 82.900 M74.799 88.249 C 65.501 94.430,63.200 96.159,63.200 96.964 C 63.200 97.192,63.487 96.969,63.837 96.468 C 64.188 95.968,68.823 92.666,74.137 89.130 C 83.368 82.988,84.788 82.000,84.379 82.000 C 84.279 82.000,79.968 84.812,74.799 88.249 M91.292 82.786 C 91.842 83.219,92.520 84.125,92.800 84.799 C 93.079 85.474,93.388 85.945,93.486 85.847 C 93.941 85.392,91.463 82.000,90.676 82.000 C 90.465 82.000,90.742 82.354,91.292 82.786 M132.586 84.900 L 131.952 86.200 132.767 85.200 C 133.552 84.237,133.808 83.600,133.410 83.600 C 133.306 83.600,132.935 84.185,132.586 84.900 M117.786 85.700 L 117.152 87.000 117.967 86.000 C 118.752 85.037,119.008 84.400,118.610 84.400 C 118.506 84.400,118.135 84.985,117.786 85.700 M143.867 85.467 C 143.319 86.015,143.627 88.886,144.396 90.393 C 145.029 91.633,146.387 92.755,150.996 95.845 C 154.188 97.986,156.800 99.851,156.800 99.990 C 156.800 100.130,154.226 101.985,151.079 104.112 C 144.217 108.752,142.228 111.615,143.963 114.354 C 144.179 114.695,144.235 114.212,144.109 113.093 C 143.761 109.999,144.793 108.769,151.405 104.400 C 154.569 102.310,157.157 100.330,157.156 100.000 C 157.156 99.670,154.565 97.693,151.399 95.606 C 144.868 91.302,143.819 90.068,144.064 86.977 C 144.142 86.000,144.189 85.200,144.170 85.200 C 144.150 85.200,144.013 85.320,143.867 85.467 M161.800 87.894 C 162.020 88.109,164.634 89.918,167.610 91.913 C 177.485 98.536,177.485 101.464,167.610 108.087 C 162.715 111.369,160.349 113.098,162.000 112.186 C 177.314 103.722,178.745 99.032,168.196 91.874 C 163.111 88.424,160.999 87.110,161.800 87.894 M129.419 90.421 C 128.043 92.769,127.459 94.189,128.527 92.589 C 129.588 90.999,131.228 88.000,131.036 88.000 C 130.927 88.000,130.200 89.090,129.419 90.421 M92.731 90.202 C 92.387 90.961,92.273 91.478,92.478 91.352 C 92.886 91.099,93.702 89.168,93.489 88.956 C 93.416 88.883,93.075 89.444,92.731 90.202 M115.508 89.700 C 115.187 90.195,114.707 91.050,114.440 91.600 C 113.760 93.003,114.994 91.506,115.841 89.900 C 116.539 88.574,116.323 88.444,115.508 89.700 M85.910 95.727 C 82.891 97.747,80.420 99.670,80.419 100.000 C 80.417 100.332,83.004 102.300,86.200 104.400 C 90.455 107.196,92.149 108.544,92.611 109.500 C 92.955 110.215,93.330 110.800,93.442 110.800 C 93.660 110.800,93.656 110.789,92.829 109.129 C 92.510 108.488,89.993 106.501,86.548 104.172 C 83.387 102.034,80.800 100.153,80.800 99.993 C 80.800 99.832,83.005 98.213,85.700 96.395 C 90.149 93.393,92.088 91.955,91.586 92.027 C 91.484 92.041,88.930 93.706,85.910 95.727 M126.219 96.021 C 124.843 98.369,124.259 99.789,125.327 98.189 C 126.388 96.599,128.028 93.600,127.836 93.600 C 127.727 93.600,127.000 94.690,126.219 96.021 M190.678 94.525 C 189.083 95.491,187.593 97.380,187.623 98.400 C 187.632 98.730,187.997 98.265,188.433 97.366 C 189.900 94.346,191.087 94.000,200.000 94.000 C 208.913 94.000,210.100 94.346,211.567 97.366 C 212.003 98.265,212.368 98.730,212.377 98.400 C 212.478 94.903,209.125 93.604,200.000 93.604 C 192.565 93.604,192.129 93.647,190.678 94.525 M229.338 93.906 C 229.084 94.068,243.962 94.200,262.400 94.200 C 280.838 94.200,295.840 94.065,295.738 93.900 C 295.498 93.512,229.948 93.518,229.338 93.906 M111.419 96.821 C 110.043 99.169,109.459 100.589,110.527 98.989 C 111.588 97.399,113.228 94.400,113.036 94.400 C 112.927 94.400,112.200 95.490,111.419 96.821 M226.917 95.300 C 223.606 98.920,224.496 104.059,228.741 105.833 C 230.230 106.455,295.358 106.715,295.738 106.100 C 295.840 105.935,281.074 105.847,262.924 105.905 L 229.925 106.009 228.410 105.157 C 224.584 103.007,224.243 97.909,227.737 95.109 C 228.212 94.729,228.406 94.414,228.170 94.409 C 227.933 94.404,227.369 94.805,226.917 95.300 M296.435 94.500 C 296.528 94.555,297.226 95.140,297.987 95.800 C 298.747 96.460,299.106 96.640,298.785 96.200 C 298.063 95.213,297.120 94.430,296.633 94.413 C 296.432 94.406,296.343 94.445,296.435 94.500 M62.667 97.867 C 62.300 98.233,62.329 101.909,62.700 102.138 C 62.865 102.240,63.000 101.261,63.000 99.962 C 63.000 98.663,62.985 97.600,62.967 97.600 C 62.948 97.600,62.813 97.720,62.667 97.867 M122.872 101.900 C 120.851 105.391,120.331 106.400,120.552 106.400 C 120.650 106.400,121.406 105.185,122.232 103.700 C 123.057 102.215,123.993 100.595,124.312 100.100 C 124.631 99.605,124.789 99.200,124.664 99.200 C 124.538 99.200,123.732 100.415,122.872 101.900 M108.894 101.300 C 107.218 104.127,106.364 105.786,107.077 104.831 C 108.034 103.547,110.064 100.000,109.841 100.000 C 109.744 100.000,109.318 100.585,108.894 101.300 M187.623 101.600 C 187.522 105.097,190.875 106.396,200.000 106.396 C 209.125 106.396,212.478 105.097,212.377 101.600 C 212.368 101.270,212.003 101.735,211.567 102.634 C 210.100 105.654,208.913 106.000,200.000 106.000 C 191.087 106.000,189.900 105.654,188.433 102.634 C 187.997 101.735,187.632 101.270,187.623 101.600 M63.200 103.036 C 63.200 103.862,77.543 114.069,82.800 116.985 C 84.831 118.111,81.483 115.756,73.537 110.470 C 68.552 107.154,64.187 104.031,63.837 103.531 C 63.487 103.031,63.200 102.808,63.200 103.036 M297.694 104.412 C 296.975 105.065,296.525 105.594,296.694 105.587 C 297.095 105.571,298.060 104.778,298.749 103.900 C 299.548 102.881,299.180 103.059,297.694 104.412 M119.400 108.000 C 119.059 108.660,118.869 109.200,118.979 109.200 C 119.089 109.200,119.459 108.660,119.800 108.000 C 120.141 107.340,120.331 106.800,120.221 106.800 C 120.111 106.800,119.741 107.340,119.400 108.000 M104.293 109.300 C 102.887 111.731,102.240 113.063,102.691 112.600 C 103.235 112.040,105.701 107.600,105.467 107.600 C 105.362 107.600,104.834 108.365,104.293 109.300 M117.800 110.800 C 117.459 111.460,117.269 112.000,117.379 112.000 C 117.489 112.000,117.859 111.460,118.200 110.800 C 118.541 110.140,118.731 109.600,118.621 109.600 C 118.511 109.600,118.141 110.140,117.800 110.800 M93.693 112.400 C 93.693 113.170,93.775 113.485,93.876 113.100 C 93.976 112.715,93.976 112.085,93.876 111.700 C 93.775 111.315,93.693 111.630,93.693 112.400 M116.200 113.600 C 115.859 114.260,115.669 114.800,115.779 114.800 C 115.889 114.800,116.259 114.260,116.600 113.600 C 116.941 112.940,117.131 112.400,117.021 112.400 C 116.911 112.400,116.541 112.940,116.200 113.600 M101.400 114.400 C 101.059 115.060,100.869 115.600,100.979 115.600 C 101.089 115.600,101.459 115.060,101.800 114.400 C 102.141 113.740,102.331 113.200,102.221 113.200 C 102.111 113.200,101.741 113.740,101.400 114.400 M114.600 116.400 C 114.259 117.060,114.069 117.600,114.179 117.600 C 114.289 117.600,114.659 117.060,115.000 116.400 C 115.341 115.740,115.531 115.200,115.421 115.200 C 115.311 115.200,114.941 115.740,114.600 116.400 M144.400 115.471 C 144.400 115.955,146.331 117.764,147.474 118.351 C 149.135 119.205,154.000 118.481,154.000 117.379 C 154.000 117.269,153.469 117.454,152.820 117.790 C 150.349 119.068,146.951 118.335,145.235 116.154 C 144.776 115.570,144.400 115.263,144.400 115.471 M91.478 117.013 C 90.860 117.556,90.514 118.000,90.708 118.000 C 90.902 118.000,91.483 117.550,92.000 117.000 C 93.195 115.728,92.931 115.734,91.478 117.013 M85.338 118.494 C 85.946 118.881,89.500 118.885,89.738 118.500 C 89.840 118.335,88.788 118.200,87.400 118.200 C 86.012 118.200,85.084 118.332,85.338 118.494 M113.014 119.035 C 112.641 119.604,112.427 120.161,112.539 120.272 C 112.650 120.383,113.029 119.918,113.381 119.237 C 114.159 117.733,113.944 117.615,113.014 119.035 M100.016 119.926 C 99.945 122.288,103.669 125.265,106.549 125.150 C 107.699 125.104,107.671 125.076,106.200 124.809 C 102.965 124.221,101.738 123.334,100.633 120.788 C 100.302 120.025,100.024 119.637,100.016 119.926 M84.319 137.498 C 86.144 137.572,89.024 137.572,90.719 137.497 C 92.414 137.422,90.920 137.361,87.400 137.362 C 83.880 137.362,82.494 137.424,84.319 137.498 M131.329 137.500 C 138.330 137.561,149.670 137.561,156.529 137.500 C 163.388 137.438,157.660 137.388,143.800 137.388 C 129.940 137.388,124.328 137.439,131.329 137.500 M209.519 137.498 C 211.344 137.572,214.224 137.572,215.919 137.497 C 217.614 137.422,216.120 137.361,212.600 137.362 C 209.080 137.362,207.694 137.424,209.519 137.498 M253.328 137.500 C 258.568 137.563,267.028 137.563,272.128 137.500 C 277.227 137.436,272.940 137.385,262.600 137.385 C 252.260 137.385,248.087 137.437,253.328 137.500 M309.519 137.498 C 311.344 137.572,314.224 137.572,315.919 137.497 C 317.614 137.422,316.120 137.361,312.600 137.362 C 309.080 137.362,307.694 137.424,309.519 137.498 M77.944 138.396 L 77.000 139.192 78.400 138.534 C 80.152 137.712,80.285 137.600,79.511 137.600 C 79.169 137.600,78.464 137.958,77.944 138.396 M96.600 138.508 C 97.654 139.098,98.507 140.012,99.100 141.186 C 99.595 142.167,99.999 142.706,99.999 142.385 C 99.995 140.833,96.872 137.589,95.400 137.608 C 95.180 137.611,95.720 138.016,96.600 138.508 M115.800 138.067 C 114.594 138.734,113.198 140.084,113.213 140.570 C 113.221 140.806,113.553 140.609,113.952 140.131 C 114.351 139.654,115.290 138.889,116.039 138.433 C 117.436 137.581,117.236 137.273,115.800 138.067 M170.033 137.738 C 170.125 137.815,170.830 138.173,171.600 138.534 L 173.000 139.192 172.056 138.396 C 171.536 137.958,170.831 137.600,170.489 137.600 C 170.147 137.600,169.942 137.662,170.033 137.738 M202.896 138.398 C 201.554 139.216,200.004 141.351,200.001 142.385 C 200.001 142.706,200.405 142.167,200.900 141.186 C 201.493 140.012,202.346 139.098,203.400 138.508 C 204.280 138.016,204.820 137.611,204.600 137.608 C 204.380 137.605,203.613 137.961,202.896 138.398 M220.033 137.738 C 220.125 137.815,220.830 138.173,221.600 138.534 L 223.000 139.192 222.056 138.396 C 221.536 137.958,220.831 137.600,220.489 137.600 C 220.147 137.600,219.942 137.662,220.033 137.738 M283.000 138.000 C 283.136 138.220,283.485 138.400,283.776 138.400 C 284.067 138.400,284.889 138.985,285.603 139.700 C 286.613 140.712,286.795 140.796,286.425 140.079 C 286.163 139.572,285.375 138.807,284.674 138.380 C 283.278 137.528,282.616 137.378,283.000 138.000 M302.896 138.398 C 301.554 139.216,300.004 141.351,300.001 142.385 C 300.001 142.706,300.405 142.167,300.900 141.186 C 301.493 140.012,302.346 139.098,303.400 138.508 C 304.280 138.016,304.820 137.611,304.600 137.608 C 304.380 137.605,303.613 137.961,302.896 138.398 M320.033 137.738 C 320.125 137.815,320.830 138.173,321.600 138.534 L 323.000 139.192 322.056 138.396 C 321.536 137.958,320.831 137.600,320.489 137.600 C 320.147 137.600,319.942 137.662,320.033 137.738 M75.879 140.374 C 75.506 141.006,75.201 141.676,75.201 141.862 C 75.202 142.048,75.572 141.595,76.023 140.855 C 76.474 140.115,76.779 139.446,76.701 139.367 C 76.622 139.289,76.252 139.742,75.879 140.374 M173.203 139.290 C 173.201 139.450,173.559 140.170,173.999 140.890 C 174.438 141.611,174.796 142.020,174.796 141.800 C 174.795 141.580,174.437 140.860,174.000 140.200 C 173.563 139.540,173.204 139.131,173.203 139.290 M223.203 139.290 C 223.201 139.450,223.559 140.170,223.999 140.890 C 224.438 141.611,224.796 142.020,224.796 141.800 C 224.795 141.580,224.437 140.860,224.000 140.200 C 223.563 139.540,223.204 139.131,223.203 139.290 M323.203 139.290 C 323.201 139.450,323.559 140.170,323.999 140.890 C 324.438 141.611,324.796 142.020,324.796 141.800 C 324.795 141.580,324.437 140.860,324.000 140.200 C 323.563 139.540,323.204 139.131,323.203 139.290 M112.643 141.833 C 111.844 143.915,113.062 147.622,114.928 148.787 C 115.543 149.171,115.419 148.899,114.504 147.857 C 112.994 146.138,112.621 144.947,112.913 142.776 C 113.136 141.110,113.044 140.788,112.643 141.833 M287.077 142.697 C 287.379 144.948,287.019 146.123,285.496 147.857 C 284.581 148.899,284.457 149.171,285.072 148.787 C 287.021 147.570,288.296 143.319,287.221 141.621 C 286.982 141.243,286.932 141.617,287.077 142.697 M74.850 143.451 C 74.735 146.331,77.712 150.055,80.074 149.984 C 80.363 149.976,79.975 149.698,79.212 149.367 C 76.666 148.262,75.779 147.035,75.191 143.800 C 74.924 142.329,74.896 142.301,74.850 143.451 M174.860 143.451 C 174.727 146.230,173.325 148.266,170.788 149.367 C 170.025 149.698,169.634 149.976,169.920 149.984 C 172.348 150.057,175.491 146.021,175.091 143.343 L 174.920 142.200 174.860 143.451 M224.860 143.451 C 224.727 146.230,223.325 148.266,220.788 149.367 C 220.025 149.698,219.634 149.976,219.920 149.984 C 222.348 150.057,225.491 146.021,225.091 143.343 L 224.920 142.200 224.860 143.451 M324.860 143.451 C 324.727 146.230,323.325 148.266,320.788 149.367 C 320.025 149.698,319.634 149.976,319.920 149.984 C 322.348 150.057,325.491 146.021,325.091 143.343 L 324.920 142.200 324.860 143.451 M99.646 144.667 C 99.621 144.924,99.484 145.464,99.341 145.867 C 99.140 146.436,99.194 146.497,99.579 146.142 C 99.852 145.891,99.989 145.351,99.884 144.942 C 99.779 144.534,99.672 144.410,99.646 144.667 M200.028 145.076 C 200.013 145.558,200.180 146.064,200.400 146.200 C 200.873 146.492,200.873 146.101,200.400 145.000 C 200.069 144.229,200.055 144.231,200.028 145.076 M300.028 145.076 C 300.013 145.558,300.180 146.064,300.400 146.200 C 300.873 146.492,300.873 146.101,300.400 145.000 C 300.069 144.229,300.055 144.231,300.028 145.076 M237.608 145.400 C 237.589 146.872,240.833 149.995,242.385 149.999 C 242.706 149.999,242.167 149.595,241.186 149.100 C 240.012 148.507,239.098 147.654,238.508 146.600 C 238.016 145.720,237.611 145.180,237.608 145.400 M97.875 148.046 C 97.256 148.681,96.910 149.200,97.105 149.200 C 97.544 149.200,99.401 147.263,99.168 147.047 C 99.076 146.962,98.494 147.411,97.875 148.046 M200.800 147.105 C 200.800 147.544,202.737 149.401,202.953 149.168 C 203.038 149.076,202.589 148.494,201.954 147.875 C 201.319 147.256,200.800 146.910,200.800 147.105 M300.800 147.105 C 300.800 147.544,302.737 149.401,302.953 149.168 C 303.038 149.076,302.589 148.494,301.954 147.875 C 301.319 147.256,300.800 146.910,300.800 147.105 M95.000 149.600 C 94.229 149.931,94.231 149.945,95.076 149.972 C 95.558 149.987,96.064 149.820,96.200 149.600 C 96.492 149.127,96.101 149.127,95.000 149.600 M203.800 149.600 C 203.936 149.820,204.442 149.987,204.924 149.972 C 205.769 149.945,205.771 149.931,205.000 149.600 C 203.899 149.127,203.508 149.127,203.800 149.600 M303.800 149.600 C 303.936 149.820,304.442 149.987,304.924 149.972 C 305.769 149.945,305.771 149.931,305.000 149.600 C 303.899 149.127,303.508 149.127,303.800 149.600 M83.721 156.298 C 85.877 156.371,89.297 156.370,91.321 156.298 C 93.344 156.225,91.580 156.166,87.400 156.167 C 83.220 156.167,81.564 156.226,83.721 156.298 M133.700 156.300 C 142.665 156.360,157.335 156.360,166.300 156.300 C 175.265 156.240,167.930 156.191,150.000 156.191 C 132.070 156.191,124.735 156.240,133.700 156.300 M208.921 156.298 C 211.077 156.371,214.497 156.370,216.521 156.298 C 218.544 156.225,216.780 156.166,212.600 156.167 C 208.420 156.167,206.764 156.226,208.921 156.298 M262.130 156.300 C 272.872 156.359,290.332 156.359,300.930 156.300 C 311.529 156.241,302.740 156.192,281.400 156.192 C 260.060 156.192,251.389 156.241,262.130 156.300 M77.857 157.159 C 76.696 157.924,75.200 159.871,75.212 160.600 C 75.215 160.820,75.597 160.348,76.059 159.550 C 76.522 158.753,77.553 157.722,78.350 157.259 C 79.148 156.797,79.620 156.415,79.400 156.412 C 79.180 156.408,78.485 156.745,77.857 157.159 M115.800 156.867 C 114.598 157.532,113.199 158.883,113.209 159.370 C 113.214 159.606,113.529 159.412,113.909 158.937 C 114.289 158.463,115.230 157.699,116.000 157.239 C 117.428 156.386,117.254 156.063,115.800 156.867 M184.000 157.239 C 184.770 157.699,185.711 158.463,186.091 158.937 C 186.471 159.412,186.786 159.606,186.791 159.370 C 186.802 158.855,185.345 157.478,184.126 156.850 C 182.624 156.076,182.531 156.362,184.000 157.239 M203.600 156.682 C 202.128 157.221,199.987 159.962,200.009 161.280 C 200.014 161.566,200.345 161.080,200.745 160.200 C 201.531 158.473,202.325 157.665,203.958 156.932 C 205.003 156.464,204.726 156.271,203.600 156.682 M221.650 157.259 C 222.447 157.722,223.478 158.753,223.941 159.550 C 224.403 160.348,224.785 160.820,224.788 160.600 C 224.808 159.418,221.782 156.392,220.600 156.412 C 220.380 156.415,220.852 156.797,221.650 157.259 M240.941 156.797 C 240.468 156.988,239.970 157.324,239.834 157.545 C 239.631 157.873,241.795 157.014,242.367 156.538 C 242.667 156.289,241.819 156.443,240.941 156.797 M321.657 157.263 C 323.659 158.424,324.916 160.758,324.738 162.985 C 324.662 163.941,324.735 164.640,324.900 164.538 C 326.773 163.380,323.064 156.371,320.600 156.412 C 320.380 156.415,320.855 156.798,321.657 157.263 M97.878 158.006 C 98.362 158.556,99.030 159.634,99.363 160.403 C 99.696 161.171,99.976 161.566,99.984 161.280 C 100.009 160.449,98.962 158.666,97.941 157.802 L 97.000 157.006 97.878 158.006 M238.498 158.900 C 238.099 159.399,237.332 161.580,237.689 161.200 C 237.970 160.901,239.158 158.400,239.018 158.400 C 238.952 158.400,238.718 158.625,238.498 158.900 M112.667 160.267 C 110.574 162.359,114.726 168.903,118.054 168.759 C 118.806 168.727,118.735 168.655,117.710 168.412 C 114.458 167.639,112.675 165.293,112.911 162.100 C 112.996 160.945,113.036 160.000,113.000 160.000 C 112.963 160.000,112.813 160.120,112.667 160.267 M187.088 162.083 C 187.325 165.294,185.549 167.637,182.290 168.412 C 181.265 168.655,181.194 168.727,181.946 168.759 C 185.351 168.907,188.999 163.225,187.260 160.483 C 187.074 160.191,187.000 160.889,187.088 162.083 M74.850 162.251 C 74.718 165.553,78.533 169.613,80.883 168.671 C 81.167 168.557,80.932 168.449,80.359 168.432 C 77.927 168.358,75.728 165.886,75.171 162.600 C 74.925 161.148,74.895 161.116,74.850 162.251 M224.860 162.251 C 224.772 164.077,223.774 166.205,222.556 167.163 C 221.971 167.623,221.663 168.000,221.871 168.000 C 223.194 168.000,225.373 164.035,225.091 162.143 L 224.920 161.000 224.860 162.251 M200.028 163.876 C 200.013 164.358,200.180 164.864,200.400 165.000 C 200.873 165.292,200.873 164.901,200.400 163.800 C 200.069 163.029,200.055 163.031,200.028 163.876 M237.601 164.126 C 237.597 165.141,239.798 168.007,240.570 167.991 C 240.806 167.986,240.612 167.671,240.137 167.291 C 239.663 166.911,238.899 165.970,238.439 165.200 C 237.979 164.430,237.602 163.947,237.601 164.126 M323.200 166.483 C 322.650 167.116,321.480 167.889,320.600 168.200 C 319.720 168.510,319.324 168.773,319.720 168.782 C 321.058 168.815,325.018 165.991,324.368 165.468 C 324.276 165.393,323.750 165.850,323.200 166.483 M94.800 168.400 C 93.976 168.664,93.941 168.726,94.600 168.754 C 95.040 168.773,95.670 168.613,96.000 168.400 C 96.701 167.947,96.214 167.947,94.800 168.400 M204.000 168.382 C 204.330 168.605,204.945 168.791,205.367 168.794 C 206.390 168.802,206.071 168.573,204.600 168.244 C 203.724 168.048,203.562 168.085,204.000 168.382 M219.600 168.400 L 218.600 168.720 219.676 168.760 C 220.268 168.782,220.864 168.620,221.000 168.400 C 221.281 167.945,221.020 167.945,219.600 168.400 M241.390 168.384 C 241.532 168.613,242.117 168.800,242.690 168.800 C 243.944 168.800,243.799 168.608,242.266 168.240 C 241.523 168.062,241.221 168.111,241.390 168.384 M78.095 175.829 C 75.322 177.492,74.118 180.758,75.275 183.481 C 75.822 184.768,77.569 186.800,78.129 186.800 C 78.337 186.800,78.029 186.423,77.444 185.963 C 74.199 183.410,74.710 178.122,78.402 176.047 C 79.902 175.204,80.049 175.200,112.306 175.200 C 149.648 175.200,147.527 174.970,149.367 179.212 C 149.698 179.975,149.976 180.363,149.984 180.074 C 150.006 179.350,149.267 177.984,148.250 176.865 C 146.327 174.750,147.196 174.800,112.251 174.804 L 79.800 174.808 78.095 175.829 M166.319 175.345 C 165.066 175.901,163.200 177.563,163.200 178.124 C 163.200 178.335,163.577 178.029,164.037 177.444 C 166.673 174.093,183.327 174.093,185.963 177.444 C 186.423 178.029,186.800 178.337,186.800 178.129 C 186.800 177.569,184.768 175.822,183.481 175.275 C 181.953 174.626,167.810 174.683,166.319 175.345 M203.936 175.338 C 201.964 176.214,199.972 178.624,200.016 180.080 C 200.024 180.366,200.302 179.975,200.633 179.212 C 202.197 175.608,203.423 175.200,212.694 175.200 C 221.126 175.200,222.349 175.548,223.953 178.402 C 225.368 180.919,224.548 184.850,222.364 186.019 C 221.906 186.264,221.636 186.569,221.763 186.697 C 222.553 187.486,225.200 183.214,225.200 181.151 C 225.200 179.311,223.543 176.740,221.685 175.696 C 219.827 174.651,206.103 174.375,203.936 175.338 M293.105 175.083 C 293.602 175.179,294.322 175.175,294.705 175.075 C 295.087 174.975,294.680 174.896,293.800 174.901 C 292.920 174.905,292.607 174.987,293.105 175.083 M296.435 175.700 C 296.528 175.755,297.233 176.340,298.002 177.000 L 299.400 178.200 298.225 176.900 C 297.579 176.185,296.874 175.600,296.658 175.600 C 296.443 175.600,296.343 175.645,296.435 175.700 M162.667 179.067 C 162.234 179.499,162.362 182.779,162.849 183.726 C 163.423 184.843,165.241 186.800,165.706 186.800 C 165.901 186.800,165.531 186.354,164.883 185.808 C 163.302 184.478,162.654 182.774,162.900 180.593 C 163.111 178.716,163.099 178.635,162.667 179.067 M187.000 181.198 C 187.000 182.475,187.135 183.438,187.300 183.337 C 187.465 183.236,187.600 182.274,187.600 181.200 C 187.600 180.126,187.465 179.164,187.300 179.062 C 187.135 178.959,187.000 179.921,187.000 181.198 M286.653 180.900 L 285.933 182.200 286.758 181.200 C 287.489 180.313,287.814 179.600,287.486 179.600 C 287.424 179.600,287.049 180.185,286.653 180.900 M299.646 182.267 C 299.621 182.524,299.484 183.064,299.341 183.467 C 299.140 184.036,299.194 184.097,299.579 183.742 C 299.852 183.491,299.989 182.951,299.884 182.542 C 299.779 182.134,299.672 182.010,299.646 182.267 M284.640 184.240 C 284.062 185.275,283.660 186.194,283.748 186.282 C 283.836 186.370,284.382 185.595,284.960 184.560 C 285.538 183.525,285.940 182.606,285.852 182.518 C 285.764 182.430,285.218 183.205,284.640 184.240 M185.334 185.493 C 184.638 186.212,184.199 186.800,184.359 186.800 C 184.731 186.800,186.999 184.446,186.771 184.297 C 186.677 184.236,186.030 184.774,185.334 185.493 M148.030 185.368 C 146.268 187.244,146.773 187.220,111.938 187.107 C 93.754 187.048,78.960 187.135,79.062 187.300 C 79.164 187.465,94.107 187.600,112.269 187.600 C 148.663 187.600,147.145 187.701,148.726 185.170 C 149.375 184.130,149.126 184.201,148.030 185.368 M201.213 185.072 C 202.592 187.280,204.049 187.600,212.731 187.600 C 217.143 187.600,220.837 187.465,220.939 187.300 C 221.041 187.135,217.598 187.056,213.287 187.124 C 204.322 187.267,204.127 187.238,202.143 185.496 C 201.101 184.581,200.829 184.457,201.213 185.072 M297.414 187.035 C 297.041 187.604,296.827 188.161,296.939 188.272 C 297.050 188.383,297.429 187.918,297.781 187.237 C 298.559 185.733,298.344 185.615,297.414 187.035 M166.662 187.300 C 166.764 187.465,170.516 187.600,175.000 187.600 C 179.484 187.600,183.236 187.465,183.338 187.300 C 183.440 187.135,179.688 187.000,175.000 187.000 C 170.312 187.000,166.560 187.135,166.662 187.300 M282.614 187.835 C 282.241 188.404,282.027 188.961,282.139 189.072 C 282.250 189.183,282.629 188.718,282.981 188.037 C 283.759 186.533,283.544 186.415,282.614 187.835 M311.700 187.476 C 312.085 187.576,312.715 187.576,313.100 187.476 C 313.485 187.375,313.170 187.293,312.400 187.293 C 311.630 187.293,311.315 187.375,311.700 187.476 M241.367 191.854 C 237.865 194.194,234.820 196.290,234.600 196.513 C 233.941 197.179,235.048 196.489,240.800 192.648 C 243.770 190.665,246.830 188.725,247.600 188.337 C 248.370 187.949,248.715 187.625,248.367 187.616 C 248.020 187.607,244.870 189.514,241.367 191.854 M252.634 188.433 C 254.802 189.486,256.129 191.795,255.938 194.185 C 255.862 195.141,255.935 195.840,256.100 195.738 C 258.082 194.513,254.220 187.547,251.600 187.623 C 251.270 187.632,251.735 187.997,252.634 188.433 M309.023 188.381 C 306.415 190.100,305.407 193.283,306.581 196.093 C 307.109 197.356,309.629 200.000,310.305 200.000 C 310.458 200.000,309.907 199.443,309.081 198.762 C 305.484 195.797,305.688 190.388,309.466 188.596 C 310.199 188.247,310.800 187.881,310.800 187.781 C 310.800 187.413,310.169 187.626,309.023 188.381 M315.209 188.307 C 317.517 189.511,335.298 201.638,336.100 202.554 L 336.839 203.400 336.320 202.454 C 335.751 201.418,316.387 188.276,314.788 187.841 C 314.144 187.665,314.291 187.828,315.209 188.307 M295.814 189.835 C 295.441 190.404,295.227 190.961,295.339 191.072 C 295.450 191.183,295.829 190.718,296.181 190.037 C 296.959 188.533,296.744 188.415,295.814 189.835 M281.014 190.635 C 280.641 191.204,280.427 191.761,280.539 191.872 C 280.650 191.983,281.029 191.518,281.381 190.837 C 282.159 189.333,281.944 189.215,281.014 190.635 M294.214 192.635 C 293.841 193.204,293.605 193.738,293.689 193.822 C 293.773 193.907,294.158 193.441,294.544 192.788 C 295.406 191.328,295.148 191.209,294.214 192.635 M279.414 193.435 C 279.041 194.004,278.805 194.538,278.889 194.622 C 278.973 194.707,279.358 194.241,279.744 193.588 C 280.606 192.128,280.348 192.009,279.414 193.435 M293.067 194.700 C 292.968 194.865,292.395 195.900,291.794 197.000 C 291.193 198.100,290.353 199.630,289.927 200.400 C 289.272 201.586,289.264 201.653,289.877 200.838 C 290.785 199.631,293.669 194.400,293.427 194.400 C 293.328 194.400,293.166 194.535,293.067 194.700 M277.814 196.235 C 277.441 196.804,277.205 197.338,277.289 197.422 C 277.373 197.507,277.758 197.041,278.144 196.388 C 279.006 194.928,278.748 194.809,277.814 196.235 M254.229 197.962 L 253.058 199.400 254.409 198.113 C 255.151 197.405,255.678 196.758,255.579 196.675 C 255.481 196.592,254.873 197.171,254.229 197.962 M276.214 199.035 C 275.841 199.604,275.605 200.138,275.689 200.222 C 275.773 200.307,276.158 199.841,276.544 199.188 C 277.406 197.728,277.148 197.609,276.214 199.035 M78.200 200.744 C 77.540 201.152,76.712 201.826,76.361 202.243 C 75.579 203.169,75.048 204.541,75.605 204.197 C 75.822 204.063,76.000 203.725,76.000 203.446 C 76.000 202.722,77.571 201.345,79.203 200.637 C 79.971 200.304,80.330 200.025,80.000 200.017 C 79.670 200.009,78.860 200.337,78.200 200.744 M95.000 200.400 C 96.101 200.873,96.492 200.873,96.200 200.400 C 96.064 200.180,95.558 200.013,95.076 200.028 C 94.231 200.055,94.229 200.069,95.000 200.400 M97.875 201.954 C 98.494 202.589,99.076 203.038,99.168 202.953 C 99.401 202.737,97.544 200.800,97.105 200.800 C 96.910 200.800,97.256 201.319,97.875 201.954 M114.751 201.320 C 112.861 202.758,111.747 206.748,112.779 208.379 C 113.018 208.757,113.068 208.383,112.923 207.303 C 112.624 205.070,112.980 203.878,114.447 202.207 C 115.747 200.727,115.824 200.503,114.751 201.320 M185.496 202.143 C 187.019 203.877,187.379 205.052,187.077 207.303 C 186.932 208.383,186.982 208.757,187.221 208.379 C 188.296 206.681,187.021 202.430,185.072 201.213 C 184.457 200.829,184.581 201.101,185.496 202.143 M226.739 201.900 C 225.424 203.330,224.695 205.225,224.909 206.657 C 225.079 207.790,225.081 207.788,225.140 206.519 C 225.218 204.852,225.908 203.268,227.150 201.900 C 227.700 201.295,228.060 200.800,227.950 200.800 C 227.840 200.800,227.295 201.295,226.739 201.900 M273.672 203.500 C 271.674 206.952,270.995 208.304,271.514 207.800 C 271.741 207.580,272.415 206.500,273.013 205.400 C 273.610 204.300,274.451 202.815,274.882 202.100 C 275.313 201.385,275.569 200.800,275.450 200.800 C 275.332 200.800,274.532 202.015,273.672 203.500 M288.377 202.866 C 288.109 203.380,287.448 204.565,286.907 205.500 C 286.366 206.435,286.022 207.200,286.143 207.200 C 286.475 207.200,289.260 202.327,289.049 202.116 C 288.948 202.014,288.646 202.352,288.377 202.866 M99.228 203.876 C 99.318 204.915,99.944 205.796,99.972 204.924 C 99.987 204.442,99.820 203.936,99.600 203.800 C 99.380 203.664,99.213 203.698,99.228 203.876 M337.000 206.200 C 337.000 207.588,337.135 208.640,337.300 208.538 C 337.465 208.436,337.600 207.384,337.600 206.200 C 337.600 205.016,337.465 203.964,337.300 203.862 C 337.135 203.760,337.000 204.812,337.000 206.200 M74.901 206.200 C 74.905 207.080,74.987 207.393,75.083 206.895 C 75.179 206.398,75.175 205.678,75.075 205.295 C 74.975 204.913,74.896 205.320,74.901 206.200 M318.500 205.322 C 319.624 206.231,319.429 206.440,314.313 209.800 C 305.806 215.388,304.493 217.516,306.915 221.792 C 308.319 224.271,313.597 226.423,314.538 224.900 C 314.640 224.735,313.941 224.662,312.985 224.738 C 309.712 224.999,306.400 222.027,306.400 218.830 C 306.400 216.038,307.655 214.633,313.811 210.531 C 319.706 206.604,320.292 205.964,318.700 205.192 C 317.888 204.798,317.868 204.811,318.500 205.322 M242.846 206.043 C 242.817 206.450,244.867 208.057,248.433 210.422 C 251.532 212.477,254.412 214.597,254.833 215.133 C 255.255 215.669,255.600 215.922,255.600 215.695 C 255.600 215.025,253.285 213.205,248.102 209.800 C 245.423 208.040,243.155 206.330,243.062 206.000 C 242.922 205.503,242.885 205.510,242.846 206.043 M99.000 208.960 C 98.485 210.017,97.631 210.918,96.600 211.493 C 95.720 211.985,95.198 212.390,95.441 212.393 C 96.824 212.414,100.344 208.710,99.935 207.664 C 99.861 207.474,99.440 208.058,99.000 208.960 M75.204 208.200 C 75.205 208.420,75.563 209.140,76.000 209.800 C 77.036 211.364,77.037 210.808,76.001 209.110 C 75.562 208.389,75.204 207.980,75.204 208.200 M270.200 209.600 C 269.859 210.260,269.669 210.800,269.779 210.800 C 269.889 210.800,270.259 210.260,270.600 209.600 C 270.941 208.940,271.131 208.400,271.021 208.400 C 270.911 208.400,270.541 208.940,270.200 209.600 M113.679 210.000 C 114.342 211.082,116.689 212.644,117.074 212.259 C 117.204 212.129,116.854 211.849,116.295 211.636 C 115.736 211.423,114.781 210.743,114.173 210.125 C 113.136 209.070,113.105 209.062,113.679 210.000 M185.663 210.213 C 185.179 210.771,184.311 211.406,183.736 211.624 C 183.160 211.843,182.795 212.128,182.923 212.257 C 183.267 212.600,185.717 210.981,186.303 210.023 C 186.983 208.911,186.730 208.987,185.663 210.213 M283.402 211.650 C 282.613 212.997,282.050 214.183,282.151 214.284 C 282.252 214.386,282.554 214.048,282.823 213.534 C 283.091 213.020,283.752 211.835,284.293 210.900 C 284.834 209.965,285.178 209.200,285.057 209.200 C 284.937 209.200,284.192 210.302,283.402 211.650 M336.181 209.706 C 336.050 210.048,334.875 211.104,333.571 212.054 C 330.953 213.961,330.538 214.429,332.447 213.323 C 334.316 212.240,337.041 209.721,336.709 209.383 C 336.550 209.219,336.312 209.365,336.181 209.706 M77.600 211.340 C 77.930 211.656,78.650 212.046,79.200 212.207 C 80.467 212.578,80.188 212.311,78.400 211.444 C 77.384 210.952,77.165 210.923,77.600 211.340 M227.600 211.303 C 228.662 212.376,246.400 224.207,246.400 223.843 C 246.400 223.730,242.035 220.727,236.700 217.168 C 231.365 213.609,227.270 210.970,227.600 211.303 M268.600 212.400 C 268.259 213.060,268.069 213.600,268.179 213.600 C 268.289 213.600,268.659 213.060,269.000 212.400 C 269.341 211.740,269.531 211.200,269.421 211.200 C 269.311 211.200,268.941 211.740,268.600 212.400 M84.500 212.697 C 86.205 212.772,88.995 212.772,90.700 212.697 C 92.405 212.622,91.010 212.561,87.600 212.561 C 84.190 212.561,82.795 212.622,84.500 212.697 M134.300 212.700 C 142.935 212.760,157.065 212.760,165.700 212.700 C 174.335 212.640,167.270 212.590,150.000 212.590 C 132.730 212.590,125.665 212.640,134.300 212.700 M267.000 215.200 C 266.659 215.860,266.469 216.400,266.579 216.400 C 266.689 216.400,267.059 215.860,267.400 215.200 C 267.741 214.540,267.931 214.000,267.821 214.000 C 267.711 214.000,267.341 214.540,267.000 215.200 M280.202 217.250 C 279.413 218.597,278.850 219.783,278.951 219.884 C 279.052 219.986,279.354 219.648,279.623 219.134 C 279.891 218.620,280.552 217.435,281.093 216.500 C 281.634 215.565,281.978 214.800,281.857 214.800 C 281.737 214.800,280.992 215.902,280.202 217.250 M255.872 218.266 C 256.258 222.888,251.973 225.908,247.400 224.237 C 246.894 224.052,246.967 224.170,247.600 224.558 C 251.772 227.118,258.605 220.897,256.049 216.866 C 255.849 216.549,255.777 217.119,255.872 218.266 M265.414 217.835 C 265.041 218.404,264.827 218.961,264.939 219.072 C 265.050 219.183,265.429 218.718,265.781 218.037 C 266.559 216.533,266.344 216.415,265.414 217.835 M319.200 221.600 C 316.890 223.139,315.142 224.399,315.315 224.399 C 315.621 224.400,322.614 219.845,323.380 219.147 C 324.328 218.281,323.086 219.011,319.200 221.600 M263.814 220.635 C 263.441 221.204,263.227 221.761,263.339 221.872 C 263.450 221.983,263.829 221.518,264.181 220.837 C 264.959 219.333,264.744 219.215,263.814 220.635 M277.814 221.435 C 277.441 222.004,277.205 222.538,277.289 222.622 C 277.373 222.707,277.758 222.241,278.144 221.588 C 279.006 220.128,278.748 220.009,277.814 221.435 M262.667 222.667 C 262.300 223.034,262.329 227.109,262.700 227.338 C 262.865 227.440,263.000 226.371,263.000 224.962 C 263.000 223.553,262.985 222.400,262.967 222.400 C 262.948 222.400,262.813 222.520,262.667 222.667 M274.958 226.388 C 273.456 228.913,272.722 229.741,271.431 230.368 C 270.534 230.804,270.070 231.168,270.400 231.177 C 271.961 231.222,273.880 229.193,276.191 225.054 C 277.908 221.979,276.990 222.972,274.958 226.388 M263.213 228.230 C 263.187 229.096,266.105 231.219,267.274 231.184 C 267.563 231.175,267.119 230.828,266.287 230.413 C 265.455 229.997,264.426 229.239,264.001 228.729 C 263.575 228.218,263.221 227.994,263.213 228.230 M348.030 235.368 C 347.530 235.900,346.644 236.532,346.060 236.772 C 345.300 237.085,303.833 237.179,199.338 237.104 C 119.224 237.047,53.884 237.132,54.138 237.294 C 54.392 237.456,120.005 237.591,199.946 237.594 L 345.291 237.600 346.768 236.770 C 347.581 236.313,348.462 235.593,348.726 235.170 C 349.375 234.130,349.126 234.201,348.030 235.368 M25.067 275.066 C 24.501 275.632,24.771 294.632,25.365 296.051 C 25.960 297.472,27.215 298.799,28.674 299.550 C 30.120 300.295,370.087 300.184,371.520 299.438 C 374.913 297.673,375.234 296.363,375.107 284.799 L 375.000 275.000 200.167 274.900 C 104.009 274.844,25.214 274.919,25.067 275.066 M374.800 284.976 C 374.800 291.063,374.649 294.846,374.400 295.000 C 374.180 295.136,374.000 295.563,374.000 295.949 C 374.000 296.829,372.161 298.613,370.674 299.175 C 369.085 299.775,30.915 299.775,29.326 299.175 C 27.839 298.613,26.000 296.829,26.000 295.949 C 26.000 295.563,25.820 295.136,25.600 295.000 C 25.351 294.846,25.200 291.063,25.200 284.976 L 25.200 275.200 200.000 275.200 L 374.800 275.200 374.800 284.976 M191.474 281.380 C 186.511 283.149,185.568 290.903,190.073 292.896 C 190.693 293.171,191.200 293.531,191.200 293.698 C 191.200 294.518,207.888 294.019,209.517 293.150 C 214.504 290.488,213.605 282.750,208.133 281.230 C 205.851 280.596,193.355 280.709,191.474 281.380 M209.200 282.222 C 213.232 284.591,213.251 290.475,209.233 292.734 C 207.800 293.539,207.147 293.600,200.000 293.600 C 191.007 293.600,189.882 293.264,188.413 290.138 C 186.709 286.513,188.099 283.149,191.874 281.763 C 194.468 280.811,207.379 281.153,209.200 282.222 M168.800 325.200 L 168.800 337.600 200.000 337.600 L 231.200 337.600 231.200 325.200 L 231.200 312.800 200.000 312.800 L 168.800 312.800 168.800 325.200 M128.503 350.575 C 125.066 352.476,124.753 353.759,124.888 365.400 L 125.000 375.000 200.000 375.000 L 275.000 375.000 275.120 365.600 C 275.268 354.015,274.852 352.282,271.529 350.624 C 269.845 349.784,130.020 349.736,128.503 350.575 M269.000 350.800 C 269.136 351.020,269.693 351.200,270.237 351.200 C 271.686 351.200,274.000 353.651,274.000 355.187 C 274.000 355.854,274.180 356.400,274.400 356.400 C 274.655 356.400,274.800 359.733,274.800 365.600 L 274.800 374.800 200.000 374.800 L 125.200 374.800 125.200 365.624 C 125.200 359.937,125.352 356.353,125.600 356.200 C 125.820 356.064,126.000 355.507,126.000 354.963 C 126.000 353.651,128.451 351.200,129.763 351.200 C 130.307 351.200,130.864 351.020,131.000 350.800 C 131.163 350.536,154.596 350.400,200.000 350.400 C 245.404 350.400,268.837 350.536,269.000 350.800 " stroke="none" fill="#848484" fill-rule="evenodd"></path></g></svg>